<svg id="Group_966" data-name="Group 966" xmlns="http://www.w3.org/2000/svg" width="28.299" height="16.068" viewBox="0 0 28.299 16.068">
  <path id="Path_756" data-name="Path 756" d="M-415.7,121.733c-.024-.057-.052-.113-.071-.171a1.765,1.765,0,0,0-1.721-1.264c-1.979,0-3.959,0-5.938,0h-14.514c.107-.115.172-.188.24-.256.989-.99,1.987-1.971,2.966-2.971a1.76,1.76,0,0,0-.818-2.985,1.735,1.735,0,0,0-1.714.516q-1.384,1.389-2.773,2.774c-1,1-2,2.01-3.01,3.005a3.117,3.117,0,0,0-.947,1.354v.663a3.17,3.17,0,0,0,.947,1.354q2.889,2.872,5.764,5.758a1.783,1.783,0,0,0,2.423.206,1.771,1.771,0,0,0,.11-2.675c-.978-.988-1.965-1.967-2.948-2.95-.068-.069-.133-.141-.24-.257h.373c6.546,0,13.091-.012,19.637.012A2.012,2.012,0,0,0-415.7,122.4Z" transform="translate(444 -114.03)" fill="#fff"/>
</svg>
