<svg xmlns="http://www.w3.org/2000/svg" width="11.245" height="14.993" viewBox="0 0 11.245 14.993">
  <path id="Path_779" data-name="Path 779" d="M-3742.229-623.667h.585c.24.04.482.067.719.123a4.365,4.365,0,0,1,3.354,4.154c.007.395,0,.79.006,1.186,0,.051,0,.1.007.159h.823c.315,0,.422.106.422.422q0,3.806,0,7.612a1.259,1.259,0,0,1-1.34,1.336h-8.564a1.258,1.258,0,0,1-1.34-1.336q0-3.806,0-7.612c0-.316.107-.422.422-.422h.83c0-.4,0-.775,0-1.155a4.322,4.322,0,0,1,.5-2.112,4.289,4.289,0,0,1,2.68-2.18C-3742.837-623.576-3742.531-623.61-3742.229-623.667Zm2.786,5.618c0-.452.005-.89,0-1.328a2.3,2.3,0,0,0-.512-1.433,2.387,2.387,0,0,0-2.45-.928,2.381,2.381,0,0,0-1.935,1.8,7.26,7.26,0,0,0-.083,1.864c0,.007.011.014.02.025Zm-2.507,6.877c.195,0,.391,0,.585,0a.334.334,0,0,0,.358-.419c-.061-.538-.122-1.076-.177-1.614a.181.181,0,0,1,.05-.135,1.241,1.241,0,0,0,.433-1.109,1.252,1.252,0,0,0-1.518-1.061,1.208,1.208,0,0,0-.932.948,1.2,1.2,0,0,0,.4,1.214.215.215,0,0,1,.057.159c-.054.534-.115,1.066-.175,1.6a.333.333,0,0,0,.359.418C-3742.321-611.167-3742.136-611.172-3741.951-611.172Z" transform="translate(3747.559 623.667)" fill="#fff"/>
</svg>
