<svg xmlns="http://www.w3.org/2000/svg" width="17.127" height="13.712" viewBox="0 0 17.127 13.712">
  <g id="Group_1428" data-name="Group 1428" transform="translate(-433.653 -247)">
    <path id="Path_759" data-name="Path 759" d="M-1112.64,241.42l.553.322q3.547,2.076,7.094,4.151a1.73,1.73,0,0,0,1.863-.036q3.346-1.96,6.7-3.915l.891-.52c.006.084.014.146.014.207q0,4,0,8.006a2.558,2.558,0,0,1-2.625,2.627q-5.941.006-11.881,0a2.555,2.555,0,0,1-2.616-2.614q-.007-4.013,0-8.026C-1112.652,241.564-1112.645,241.507-1112.64,241.42Z" transform="translate(1546.307 8.446)" fill="#fff"/>
    <path id="Path_760" data-name="Path 760" d="M-1111.55,235.4a2.6,2.6,0,0,1,2.2-1.121q2.93,0,5.86,0,2.98,0,5.96,0a2.573,2.573,0,0,1,2.048.929c.035.041.066.084.1.127a.928.928,0,0,1,.046.083l-1.487.874q-3.208,1.882-6.414,3.765a.316.316,0,0,1-.375,0q-3.834-2.259-7.676-4.506Z" transform="translate(1545.646 12.717)" fill="#fff"/>
  </g>
</svg>
