<svg xmlns="http://www.w3.org/2000/svg" width="24.46" height="14.398" viewBox="0 0 24.46 14.398">
  <g id="Group_966" data-name="Group 966" transform="translate(0.5 0.503)">
    <path id="Path_756" data-name="Path 756" d="M-444,120.416c.02-.047.043-.094.059-.142a1.463,1.463,0,0,1,1.426-1.048c1.641,0,3.282,0,4.923,0h12.032c-.089-.1-.142-.155-.2-.213-.82-.82-1.647-1.634-2.459-2.463a1.459,1.459,0,0,1,.678-2.475,1.438,1.438,0,0,1,1.421.428q1.147,1.152,2.3,2.3c.831.831,1.658,1.666,2.5,2.491a2.585,2.585,0,0,1,.785,1.123v.55a2.628,2.628,0,0,1-.785,1.123q-2.395,2.381-4.779,4.773a1.478,1.478,0,0,1-2.008.171,1.468,1.468,0,0,1-.091-2.218c.811-.819,1.629-1.63,2.444-2.446.057-.057.11-.117.2-.213h-.309c-5.426,0-10.853-.01-16.279.01a1.668,1.668,0,0,1-1.852-1.2Z" transform="translate(444 -114.03)" fill="#111" stroke="rgba(0,0,0,0)" stroke-miterlimit="10" stroke-width="1"/>
  </g>
</svg>
