<svg xmlns="http://www.w3.org/2000/svg" width="13.994" height="15.885" viewBox="0 0 13.994 15.885">
  <g id="Group_1427" data-name="Group 1427" transform="translate(-435.219 -180.302)">
    <path id="Path_757" data-name="Path 757" d="M-891.868,291.847a.6.6,0,0,1-.344-.64,6.128,6.128,0,0,1,5.045-5.844,7.638,7.638,0,0,1,1.066-.089c.632-.014,1.264-.023,1.9,0a5.969,5.969,0,0,1,5.3,3.3,5.9,5.9,0,0,1,.688,2.645.582.582,0,0,1-.343.625Z" transform="translate(1327.432 -95.66)" fill="#fff"/>
    <path id="Path_758" data-name="Path 758" d="M-877.92,251.752a4.2,4.2,0,0,1,4.192,4.2,4.2,4.2,0,0,1-4.2,4.176,4.2,4.2,0,0,1-4.192-4.2A4.2,4.2,0,0,1-877.92,251.752Z" transform="translate(1320.141 -71.45)" fill="#fff"/>
  </g>
</svg>
