<svg xmlns="http://www.w3.org/2000/svg" width="18.758" height="18.759" viewBox="0 0 18.758 18.759">
  <path id="Path_54620" data-name="Path 54620" d="M-3435.97-91.344v-1.1c.011-.058.024-.117.032-.177.047-.35.075-.7.142-1.049a9.2,9.2,0,0,1,2.92-5.183,9.123,9.123,0,0,1,4.688-2.28c.349-.058.7-.1,1.049-.143h1.1c.06.011.12.025.178.032.346.046.693.072,1.034.138a9.047,9.047,0,0,1,5.086,2.81,9.156,9.156,0,0,1,2.36,8.159,8.857,8.857,0,0,1-2.818,5.1,9.151,9.151,0,0,1-8.145,2.351,9.02,9.02,0,0,1-5.19-2.907,9.135,9.135,0,0,1-2.289-4.686C-3435.885-90.631-3435.922-90.989-3435.97-91.344Zm10.6,1.08h-.009c0-.848.02-1.7-.006-2.544a1.2,1.2,0,0,0-1.524-1.076,1.218,1.218,0,0,0-.9,1.281q0,2.289,0,4.577c0,.121,0,.244.013.366a1.213,1.213,0,0,0,1.31,1.057,1.205,1.205,0,0,0,1.117-1.281C-3425.365-88.678-3425.368-89.471-3425.368-90.263Zm-.044-5.633a1.12,1.12,0,0,0-1.178-1.149,1.089,1.089,0,0,0-1.174,1.1,1.092,1.092,0,0,0,1.157,1.14A1.122,1.122,0,0,0-3425.413-95.9Z" transform="translate(3435.97 101.274)" fill="#fff"/>
</svg>
