<svg xmlns="http://www.w3.org/2000/svg" width="5.878" height="10.725" viewBox="0 0 5.878 10.725">
  <g id="Group_21275" data-name="Group 21275" transform="translate(0 10.725) rotate(-90)">
    <path id="Path_54636" data-name="Path 54636" d="M10.725.614a.912.912,0,0,1-.256.373Q8.12,3.331,5.774,5.68A.523.523,0,0,1,5.1,5.8a.734.734,0,0,1-.145-.118Q2.573,3.3.188.919A.512.512,0,0,1,.025.371.488.488,0,0,1,.39.018.829.829,0,0,1,.577,0q4.785,0,9.571,0a.553.553,0,0,1,.577.425Z" fill="#fff"/>
  </g>
</svg>
