<svg xmlns="http://www.w3.org/2000/svg" width="14.556" height="8.297" viewBox="0 0 14.556 8.297">
  <path id="Path_54634" data-name="Path 54634" d="M-3944.783-509.788a1.172,1.172,0,0,0,.389.657,1.013,1.013,0,0,0,1.25.006,2.429,2.429,0,0,0,.2-.182q2.654-2.653,5.307-5.308a1.124,1.124,0,0,1,.171-.161.643.643,0,0,0,.085.148q2.677,2.682,5.356,5.361a1.032,1.032,0,0,0,1.113.3,1.017,1.017,0,0,0,.494-1.55,1.556,1.556,0,0,0-.149-.172q-3.085-3.088-6.172-6.173a1.009,1.009,0,0,0-1.282-.2,1.457,1.457,0,0,0-.283.233q-3,2.994-5.994,5.99a1.534,1.534,0,0,0-.485.765Z" transform="translate(3944.783 517.209)" fill="#fff" opacity="0.8"/>
</svg>
