<svg xmlns="http://www.w3.org/2000/svg" xmlns:xlink="http://www.w3.org/1999/xlink" width="289" height="147" viewBox="0 0 289 147">
  <defs>
    <linearGradient id="linear-gradient" x1="0.017" y1="0.953" x2="0.974" y2="0.953" gradientUnits="objectBoundingBox">
      <stop offset="0" stop-color="#f7ceb2"/>
      <stop offset="1" stop-color="#994e25"/>
    </linearGradient>
  </defs>
  <path id="Subtraction_24" data-name="Subtraction 24" d="M14773.5,785.5V772.486a9.5,9.5,0,0,1,0-18.974v-6.026a9.5,9.5,0,0,1,0-18.974v-6.026a9.5,9.5,0,0,1,0-18.974v-6.026a9.5,9.5,0,0,1,0-18.974v-6.026a9.5,9.5,0,0,1,0-18.974V641.5h-286v12.012c.166-.009.333-.013.5-.013a9.5,9.5,0,1,1,0,19c-.167,0-.334,0-.5-.013v6.026c.166-.009.333-.013.5-.013a9.5,9.5,0,1,1,0,19c-.167,0-.334,0-.5-.013v6.026c.166-.009.333-.013.5-.013a9.5,9.5,0,1,1,0,19c-.167,0-.334,0-.5-.013v6.026c.166-.009.333-.013.5-.013a9.5,9.5,0,1,1,0,19c-.167,0-.334,0-.5-.013v6.026c.166-.009.333-.013.5-.013a9.5,9.5,0,1,1,0,19c-.167,0-.334,0-.5-.013V785.5h286m1.5,1.5h-289V770.747a8,8,0,1,0,0-15.5v-9.5a8,8,0,1,0,0-15.5v-9.5a8,8,0,1,0,0-15.5v-9.5a8,8,0,1,0,0-15.5v-9.5a8,8,0,1,0,0-15.5V640h289v15.06a8,8,0,1,0,0,15.877v9.124a8,8,0,1,0,0,15.877v9.124a8,8,0,1,0,0,15.877v9.124a8,8,0,1,0,0,15.877v9.124a8,8,0,1,0,0,15.877Z" transform="translate(-14485.999 -639.999)" fill="url(#linear-gradient)"/>
</svg>
