<svg xmlns="http://www.w3.org/2000/svg" width="18.758" height="18.742" viewBox="0 0 18.758 18.742">
  <g id="Group_21259" data-name="Group 21259" transform="translate(3516.817 304.119)">
    <path id="Path_54618" data-name="Path 54618" d="M-3498.04-280.442v.25q0,3.57,0,7.14a2.8,2.8,0,0,1-2.149,2.82,3.232,3.232,0,0,1-.74.077q-6.482.006-12.965,0a2.8,2.8,0,0,1-2.859-2.372,2.848,2.848,0,0,1-.031-.481q0-3.614,0-7.228c0-.065.006-.129.01-.208Z" transform="translate(-0.02 -15.226)" fill="#fff"/>
    <path id="Path_54619" data-name="Path 54619" d="M-3501.807-301.308c.319,0,.6,0,.888,0a2.794,2.794,0,0,1,2.858,2.864c0,.284,0,.569,0,.868h-18.723a3.253,3.253,0,0,1,.965-3.063,2.671,2.671,0,0,1,1.638-.66c.365-.016.729,0,1.122,0v-.94c0-.3,0-.6,0-.9a.931.931,0,0,1,.915-.976.926.926,0,0,1,.96.954c.011.527,0,1.055,0,1.582,0,.08,0,.16,0,.257h7.494v-.507c0-.439-.006-.879,0-1.318a.931.931,0,0,1,.948-.968.931.931,0,0,1,.929.984C-3501.8-302.535-3501.807-301.936-3501.807-301.308Z" transform="translate(0)" fill="#fff"/>
  </g>
</svg>
