<svg xmlns="http://www.w3.org/2000/svg" width="18.759" height="18.759" viewBox="0 0 18.759 18.759">
  <g id="Group_21260" data-name="Group 21260" transform="translate(4012.087 180.667)">
    <path id="Path_54621" data-name="Path 54621" d="M-4012.087-171.292a9.384,9.384,0,0,1,9.37-9.375,9.393,9.393,0,0,1,9.388,9.408,9.383,9.383,0,0,1-9.468,9.35A9.388,9.388,0,0,1-4012.087-171.292Zm10.727-.889q-1.6,0-3.2,0a1.805,1.805,0,0,0-.357.029.876.876,0,0,0-.671,1.049.892.892,0,0,0,.949.706c1.037,0,2.073,0,3.11,0q1.722,0,3.444,0a.909.909,0,0,0,.911-.532.891.891,0,0,0-.881-1.254C-3999.159-172.186-4000.26-172.181-4001.36-172.181Zm.016-3.373v0c-1.116,0-2.232,0-3.348,0a.886.886,0,0,0-.926.889.9.9,0,0,0,.935.885q3.325,0,6.65,0a1.088,1.088,0,0,0,.415-.086.872.872,0,0,0,.5-.984.869.869,0,0,0-.855-.7C-3999.095-175.558-4000.219-175.554-4001.344-175.554Zm-.021,8.532h0q1.639,0,3.277,0a.885.885,0,0,0,.985-.9.89.89,0,0,0-.981-.88h-2.248q-2.165,0-4.33,0a.9.9,0,0,0-.914.629.879.879,0,0,0,.862,1.145C-4003.6-167.015-4002.481-167.021-4001.365-167.021Zm-6.947-4.273a.9.9,0,0,0,.9.916.918.918,0,0,0,.912-.89.917.917,0,0,0-.9-.927A.9.9,0,0,0-4008.312-171.295Zm.9,2.484a.893.893,0,0,0-.9.914.91.91,0,0,0,.921.9.925.925,0,0,0,.9-.909A.91.91,0,0,0-4007.411-168.811Zm.01-4.955a.91.91,0,0,0,.905-.892.922.922,0,0,0-.906-.922.907.907,0,0,0-.91.91A.894.894,0,0,0-4007.4-173.765Z" transform="translate(0 0)" fill="#fff"/>
  </g>
</svg>
