<svg width="140" height="109" viewBox="0 0 140 109" fill="none" xmlns="http://www.w3.org/2000/svg">
<path d="M118.593 9.57627C109.531 5.33617 99.8409 2.25465 89.7102 0.5C88.4661 2.7494 87.0125 5.77488 86.0104 8.18165C75.2412 6.5621 64.5712 6.5621 54.0001 8.18165C52.9981 5.77488 51.5116 2.7494 50.2563 0.5C40.1147 2.25465 30.4136 5.34749 21.3511 9.59872C3.07208 37.2208 -1.88307 64.1567 0.594514 90.7102C12.7181 99.7638 24.4674 105.264 36.0184 108.863C38.8704 104.937 41.4139 100.765 43.6052 96.3673C39.4319 94.7816 35.4348 92.8246 31.6579 90.5528C32.6599 89.8105 33.64 89.0344 34.5869 88.2358C57.6228 99.0103 82.6519 99.0103 105.413 88.2358C106.371 89.0344 107.351 89.8105 108.342 90.5528C104.554 92.8358 100.546 94.7927 96.3722 96.3787C98.5635 100.765 101.096 104.949 103.959 108.874C115.521 105.275 127.281 99.7751 139.405 90.7102C142.312 59.9279 134.439 33.2394 118.593 9.57627ZM46.7435 74.38C39.8284 74.38 34.1574 67.9243 34.1574 60.0628C34.1574 52.2014 39.7073 45.7345 46.7435 45.7345C53.78 45.7345 59.4508 52.19 59.3297 60.0628C59.3406 67.9243 53.78 74.38 46.7435 74.38ZM93.256 74.38C86.3408 74.38 80.6699 67.9243 80.6699 60.0628C80.6699 52.2014 86.2196 45.7345 93.256 45.7345C100.292 45.7345 105.963 52.19 105.842 60.0628C105.842 67.9243 100.292 74.38 93.256 74.38Z" fill="white"/>
</svg>
