<svg xmlns="http://www.w3.org/2000/svg" width="18.667" height="18.667" viewBox="0 0 18.667 18.667">
  <path id="Icon_ionic-logo-linkedin" data-name="Icon ionic-logo-linkedin" d="M21.674,4.5H6.095A1.523,1.523,0,0,0,4.5,5.954V21.567a1.642,1.642,0,0,0,1.595,1.6H21.669a1.559,1.559,0,0,0,1.5-1.6V5.954A1.431,1.431,0,0,0,21.674,4.5ZM10.286,20.06H7.612V11.745h2.674ZM9.042,10.481H9.022a1.373,1.373,0,0,1-1.41-1.434A1.381,1.381,0,0,1,9.056,7.612a1.377,1.377,0,0,1,1.43,1.434A1.381,1.381,0,0,1,9.042,10.481ZM20.06,20.06H17.386V15.513c0-1.089-.389-1.833-1.357-1.833a1.463,1.463,0,0,0-1.371.987,1.8,1.8,0,0,0-.092.656V20.06H11.891V11.745h2.674V12.9a2.707,2.707,0,0,1,2.412-1.352c1.755,0,3.083,1.157,3.083,3.652V20.06Z" transform="translate(-4.5 -4.5)"/>
</svg>
