<svg xmlns="http://www.w3.org/2000/svg" width="46" height="34" viewBox="0 0 46 34">
  <g id="icon_m_search" transform="translate(-1320 -537)">
    <rect id="Rectangle_7211" data-name="Rectangle 7211" width="46" height="34" transform="translate(1320 537)" fill="none"/>
    <g id="icon_m_search-2" data-name="icon_m_search" transform="translate(1323.002 549)">
      <path id="Path_789" data-name="Path 789" d="M-3601.555-273.662h-1a1.07,1.07,0,0,1-.148.032,8.1,8.1,0,0,0-3.35.955,8.525,8.525,0,0,0-4.5,6.1c-.067.339-.1.684-.149,1.027v1.081c.03.235.052.471.09.7a8.355,8.355,0,0,0,3.347,5.641,8.409,8.409,0,0,0,8.664,1.032,19.571,19.571,0,0,0,1.768-.943c.149.161.329.371.525.565q1.618,1.6,3.243,3.2a1.245,1.245,0,0,0,1.784.011,1.234,1.234,0,0,0-.046-1.78q-1.812-1.819-3.631-3.633c-.053-.053-.1-.108-.159-.166l.13-.187a8.51,8.51,0,0,0,1.538-5.841,8.381,8.381,0,0,0-2.176-4.924,8.457,8.457,0,0,0-4.877-2.721C-3600.855-273.574-3601.206-273.613-3601.555-273.662Zm-6.682,8.658a6.18,6.18,0,0,1,6.171-6.184,6.187,6.187,0,0,1,6.186,6.173,6.188,6.188,0,0,1-6.174,6.184A6.181,6.181,0,0,1-3608.237-265Z" transform="translate(3610.709 269.662)" fill="#fff"/>
    </g>
  </g>
</svg>
