<svg xmlns="http://www.w3.org/2000/svg" width="26.644" height="24.595" viewBox="0 0 26.644 24.595">
  <path id="icon_like" d="M22.692,4.5A7.881,7.881,0,0,0,16.7,7.312,7.881,7.881,0,0,0,10.7,4.5a7.244,7.244,0,0,0-7.327,7.372c0,5.092,4.528,9.178,11.388,15.48L16.7,29.095l1.934-1.742c6.86-6.3,11.388-10.389,11.388-15.48A7.244,7.244,0,0,0,22.692,4.5ZM17.517,25.591l-.269.25-.551.5-.551-.5-.269-.25a81.409,81.409,0,0,1-7.859-7.814c-1.793-2.222-2.588-4.041-2.588-5.905a5.327,5.327,0,0,1,1.518-3.8A5.212,5.212,0,0,1,10.7,6.55a5.874,5.874,0,0,1,4.426,2.082L16.7,10.495l1.569-1.864A5.852,5.852,0,0,1,22.692,6.55a5.238,5.238,0,0,1,3.76,1.524,5.338,5.338,0,0,1,1.518,3.8c0,1.857-.8,3.683-2.588,5.905A81.574,81.574,0,0,1,17.517,25.591Z" transform="translate(-3.375 -4.5)" fill="#a79ca4"/>
</svg>
