<svg xmlns="http://www.w3.org/2000/svg" width="48.365" height="45.469" viewBox="0 0 48.365 45.469">
  <path id="icon_snapchat_pe" d="M48.256,36.723c-.492,1.148-2.573,1.992-6.363,2.581a17.718,17.718,0,0,0-.615,2.263,1.094,1.094,0,0,1-1.146.838H40.1c-.887,0-1.814-.408-3.67-.408-2.505,0-3.369.571-5.314,1.945-2.062,1.458-4.04,2.717-6.993,2.588-2.989.22-5.481-1.6-6.884-2.589C15.288,42.556,14.427,42,11.932,42a35.679,35.679,0,0,0-3.67.446,1.121,1.121,0,0,1-1.173-.854,17.5,17.5,0,0,0-.616-2.279C4.519,39,.114,38.236,0,36.271A1,1,0,0,1,.84,35.225c6.573-1.082,9.534-7.831,9.657-8.118.007-.017.015-.032.022-.049a2.147,2.147,0,0,0,.233-1.771c-.477-1.124-2.538-1.527-3.406-1.87-2.24-.885-2.552-1.9-2.419-2.6a2.431,2.431,0,0,1,3.117-1.46,5.406,5.406,0,0,0,2.224.595,1.928,1.928,0,0,0,.941-.205c-.193-3.395-.671-8.246.537-10.955A12.87,12.87,0,0,1,23.694,1.086l.955-.008A12.781,12.781,0,0,1,36.62,8.79c1.207,2.706.732,7.537.538,10.959a1.851,1.851,0,0,0,.812.2,5.643,5.643,0,0,0,2.085-.591,2.557,2.557,0,0,1,1.935.005h0a1.962,1.962,0,0,1,1.473,1.688c.017.921-.805,1.716-2.445,2.363-.2.079-.443.156-.7.239-.925.293-2.324.737-2.7,1.631a2.145,2.145,0,0,0,.232,1.771c.008.016.016.032.023.049.123.286,3.081,7.034,9.657,8.118A1.031,1.031,0,0,1,48.256,36.723Z" transform="translate(0 -1.078)"/>
</svg>
