<svg xmlns="http://www.w3.org/2000/svg" width="49.415" height="49.415" viewBox="0 0 49.415 49.415">
  <path id="Path_305" data-name="Path 305" d="M24.707,4.392c6.589,0,7.412,0,9.883.275a12.733,12.733,0,0,1,4.667.824,9.641,9.641,0,0,1,4.667,4.667,12.733,12.733,0,0,1,.824,4.667c0,2.471.275,3.294.275,9.883s0,7.412-.275,9.883a12.733,12.733,0,0,1-.824,4.667,9.641,9.641,0,0,1-4.667,4.667,12.733,12.733,0,0,1-4.667.824c-2.471,0-3.294.275-9.883.275s-7.412,0-9.883-.275a12.733,12.733,0,0,1-4.667-.824,9.641,9.641,0,0,1-4.667-4.667,12.733,12.733,0,0,1-.824-4.667c0-2.471-.275-3.294-.275-9.883s0-7.412.275-9.883a12.733,12.733,0,0,1,.824-4.667A9.86,9.86,0,0,1,7.412,7.412a4.641,4.641,0,0,1,2.745-1.922,12.733,12.733,0,0,1,4.667-.824c2.471-.275,3.294-.275,9.883-.275m0-4.392C18.119,0,17.021,0,14.55.275a16.948,16.948,0,0,0-6.04,1.1A10.747,10.747,0,0,0,4.118,4.118,10.747,10.747,0,0,0,1.373,8.51a12.508,12.508,0,0,0-1.1,6.04C0,17.021,0,18.119,0,24.707s0,7.687.275,10.157a16.948,16.948,0,0,0,1.1,6.04A10.747,10.747,0,0,0,4.118,45.3,10.747,10.747,0,0,0,8.51,48.042a16.948,16.948,0,0,0,6.04,1.1c2.471.275,3.569.275,10.157.275s7.687,0,10.157-.275a16.948,16.948,0,0,0,6.04-1.1A11.518,11.518,0,0,0,48.042,40.9a16.948,16.948,0,0,0,1.1-6.04c0-2.745.275-3.569.275-10.157s0-7.687-.275-10.157a16.948,16.948,0,0,0-1.1-6.04A10.747,10.747,0,0,0,45.3,4.118,10.747,10.747,0,0,0,40.9,1.373a16.948,16.948,0,0,0-6.04-1.1C32.394,0,31.3,0,24.707,0m0,12.079A12.425,12.425,0,0,0,12.079,24.707,12.628,12.628,0,1,0,24.707,12.079m0,20.864a8.089,8.089,0,0,1-8.236-8.236,8.089,8.089,0,0,1,8.236-8.236,8.089,8.089,0,0,1,8.236,8.236,8.089,8.089,0,0,1-8.236,8.236M37.885,8.51a3.02,3.02,0,1,0,3.02,3.02,3.047,3.047,0,0,0-3.02-3.02"/>
</svg>
