<svg xmlns="http://www.w3.org/2000/svg" width="49.934" height="35.11" viewBox="0 0 49.934 35.11">
  <path id="icon_youtube_pe" d="M49.941,9.994A6.274,6.274,0,0,0,45.526,5.55C41.632,4.5,26.017,4.5,26.017,4.5S10.4,4.5,6.508,5.55A6.274,6.274,0,0,0,2.093,9.994c-1.043,3.919-1.043,12.1-1.043,12.1s0,8.178,1.043,12.1A6.181,6.181,0,0,0,6.508,38.56c3.894,1.05,19.509,1.05,19.509,1.05s15.615,0,19.509-1.05a6.181,6.181,0,0,0,4.415-4.372c1.043-3.919,1.043-12.1,1.043-12.1s0-8.178-1.043-12.1ZM20.91,29.515V14.666l13.051,7.425L20.91,29.515Z" transform="translate(-1.05 -4.5)"/>
</svg>
