<svg xmlns="http://www.w3.org/2000/svg" width="24.195" height="28.129" viewBox="0 0 24.195 28.129">
  <g id="icon_filter_show" transform="translate(-333.367 4079.938) rotate(90)">
    <path id="Path_790" data-name="Path 790" d="M-4049.408-349.342v.411q0,6.993,0,13.985a2.453,2.453,0,0,1-.021.461,1.064,1.064,0,0,1-1.1.855,1.071,1.071,0,0,1-.991-1.017c-.006-.11,0-.22,0-.33q0-6.976.007-13.952a.484.484,0,0,0-.373-.562,4.012,4.012,0,0,1-2.544-4.584,4.039,4.039,0,0,1,3.967-3.239,4.02,4.02,0,0,1,3.983,3.333,4.037,4.037,0,0,1-2.519,4.488C-4049.126-349.443-4049.251-349.4-4049.408-349.342Zm-2.987-3.92a1.921,1.921,0,0,0,1.918,1.945,1.922,1.922,0,0,0,1.939-1.923,1.922,1.922,0,0,0-1.917-1.944A1.922,1.922,0,0,0-4052.4-353.261Z" transform="translate(-15.407)" stroke="#000" stroke-width="0.5"/>
    <path id="Path_791" data-name="Path 791" d="M-4023.228-337.936c0,1.082.006,2.15,0,3.218a1.06,1.06,0,0,1-1.413,1.055,1.052,1.052,0,0,1-.7-1.019c-.005-.959,0-1.917,0-2.876,0-.12,0-.24-.068-.288a11.673,11.673,0,0,1-1.593-1.02,4.01,4.01,0,0,1,1.338-6.752.4.4,0,0,0,.33-.457c-.01-3.338,0-6.677-.01-10.015a1.079,1.079,0,0,1,.56-1.044,1.057,1.057,0,0,1,1.554.865c.01.109,0,.22,0,.33q0,4.925-.006,9.85a.4.4,0,0,0,.323.463,4,4,0,0,1,2.664,3.735,4.02,4.02,0,0,1-2.605,3.814Zm.869-3.909a1.927,1.927,0,0,0-1.931-1.933,1.923,1.923,0,0,0-1.928,1.934,1.922,1.922,0,0,0,1.93,1.933A1.924,1.924,0,0,0-4022.359-341.846Z" transform="translate(-31.812 -0.029)" stroke="#000" stroke-width="0.5"/>
    <path id="Path_792" data-name="Path 792" d="M-4075.591-352.883c0,1.091.006,2.183,0,3.274a.322.322,0,0,0,.268.367,4,4,0,0,1,2.719,3.8,3.985,3.985,0,0,1-2.7,3.809.362.362,0,0,0-.287.423c.007,2.171,0,4.343,0,6.514a1.025,1.025,0,0,1-.628,1,.991.991,0,0,1-1.135-.185,1.135,1.135,0,0,1-.355-.923c0-2.127,0-4.255.009-6.382a.408.408,0,0,0-.325-.465,3.993,3.993,0,0,1-2.663-3.771,3.983,3.983,0,0,1,2.645-3.782.446.446,0,0,0,.343-.519q-.018-3.208,0-6.415a1.056,1.056,0,0,1,1.405-1.065,1.046,1.046,0,0,1,.706,1.014C-4075.587-355.088-4075.591-353.986-4075.591-352.883Zm-1.039,5.521a1.925,1.925,0,0,0-1.94,1.923,1.926,1.926,0,0,0,1.929,1.936,1.927,1.927,0,0,0,1.942-1.924A1.926,1.926,0,0,0-4076.629-347.362Z" transform="translate(1 -0.027)" stroke="#000" stroke-width="0.5"/>
  </g>
</svg>
