<svg xmlns="http://www.w3.org/2000/svg" width="44.301" height="50.993" viewBox="0 0 44.301 50.993">
  <path id="icon_tiktok_pe" d="M25.636.042C28.419,0,31.181.021,33.943,0a13.234,13.234,0,0,0,3.718,8.86,14.984,14.984,0,0,0,9.009,3.8v8.562a22.742,22.742,0,0,1-8.924-2.061A26.25,26.25,0,0,1,34.3,17.189c-.021,6.2.021,12.408-.042,18.591a16.228,16.228,0,0,1-2.868,8.371,15.829,15.829,0,0,1-12.557,6.82,15.492,15.492,0,0,1-8.669-2.188A16.022,16.022,0,0,1,2.413,36.651c-.042-1.062-.064-2.125-.021-3.166A16,16,0,0,1,20.94,19.292c.042,3.145-.085,6.289-.085,9.434a7.29,7.29,0,0,0-9.306,4.5,8.429,8.429,0,0,0-.3,3.421,7.231,7.231,0,0,0,7.436,6.1,7.138,7.138,0,0,0,5.885-3.421,4.9,4.9,0,0,0,.871-2.252c.212-3.8.127-7.585.149-11.388.021-8.562-.021-17.1.042-25.645Z" transform="translate(-2.369)"/>
</svg>
