<svg xmlns="http://www.w3.org/2000/svg" width="15.407" height="15.405" viewBox="0 0 15.407 15.405">
  <path id="Path_76899" data-name="Path 76899" d="M-406.585,401.634c.294,0,.587-.006.88,0a.326.326,0,0,0,.264-.111q1.529-1.535,3.063-3.065a1.025,1.025,0,0,1,1.3-.182,1.016,1.016,0,0,1,.168,1.592c-.466.476-.94.943-1.411,1.413-.559.559-1.115,1.119-1.677,1.673a.348.348,0,0,0-.113.281c.01.575.008,1.151.02,1.726a.557.557,0,0,1-.178.435q-3.916,3.909-7.825,7.826a.957.957,0,0,1-.989.263,3.458,3.458,0,0,1-1.365-.786,5.141,5.141,0,0,1-1.357-1.667,2.46,2.46,0,0,1-.187-.592.859.859,0,0,1,.276-.811q2.218-2.209,4.428-4.426,1.705-1.705,3.408-3.412a.556.556,0,0,1,.451-.179c.281.011.564,0,.846,0Z" transform="translate(416.012 -398.124)" fill="#ff2b6e"/>
</svg>
