<svg xmlns="http://www.w3.org/2000/svg" width="540.413" height="501.813" viewBox="0 0 540.413 501.813">
  <path id="Icon_ionic-ios-star" data-name="Icon ionic-ios-star" d="M522.157,177.079H344.713L290.792,16.162a19.539,19.539,0,0,0-36.671,0L200.2,177.079H21.55a19.357,19.357,0,0,0-19.3,19.3,14.184,14.184,0,0,0,.362,3.257c.241,4.222,2.171,8.926,8.082,13.631L156.533,316.043,100.562,478.77a19.356,19.356,0,0,0,6.635,21.713c3.5,2.533,6.755,4.7,10.857,4.7,3.981,0,8.685-2.051,12.063-4.343L272.457,399.4,414.8,500.845c3.378,2.413,8.082,4.343,12.063,4.343,4.1,0,7.358-2.051,10.736-4.7a19.119,19.119,0,0,0,6.635-21.713L388.26,316.043,532.893,212.3l3.5-3.016c3.136-3.378,6.273-7.961,6.273-12.907C542.663,185.765,532.772,177.079,522.157,177.079Z" transform="translate(-2.25 -3.375)" fill="#fff"/>
</svg>
