<svg xmlns="http://www.w3.org/2000/svg" width="49.415" height="40.081" viewBox="0 0 49.415 40.081">
  <path id="Path_304" data-name="Path 304" d="M53.648,42.081c18.668,0,28.825-15.373,28.825-28.825V11.883a22.314,22.314,0,0,0,4.941-5.216A22.789,22.789,0,0,1,81.65,8.314a10.681,10.681,0,0,0,4.392-5.491,25.181,25.181,0,0,1-6.314,2.471A9.8,9.8,0,0,0,72.316,2,10.314,10.314,0,0,0,62.158,12.157a5.352,5.352,0,0,0,.274,2.2A28.383,28.383,0,0,1,41.569,3.647,10.513,10.513,0,0,0,40.2,8.863a10.907,10.907,0,0,0,4.392,8.51A9.255,9.255,0,0,1,39.922,16h0a10.033,10.033,0,0,0,8.236,9.883,8.463,8.463,0,0,1-2.745.275,4.672,4.672,0,0,1-1.922-.275A10.4,10.4,0,0,0,53.1,33.021a20.727,20.727,0,0,1-12.628,4.392A7.6,7.6,0,0,1,38,37.139a25.912,25.912,0,0,0,15.648,4.941" transform="translate(-38 -2)"/>
</svg>
