<svg xmlns="http://www.w3.org/2000/svg" width="43.007" height="49.151" viewBox="0 0 43.007 49.151">
  <path id="icon_discord_pe" d="M28.532,23.347a2.516,2.516,0,1,1-2.507-2.728A2.618,2.618,0,0,1,28.532,23.347ZM17.056,20.619a2.738,2.738,0,0,0,0,5.456,2.618,2.618,0,0,0,2.507-2.728A2.6,2.6,0,0,0,17.056,20.619ZM43.007,5.063V49.151c-6.191-5.471-4.211-3.66-11.4-10.346l1.3,4.547H5.038A5.05,5.05,0,0,1,0,38.289V5.063A5.05,5.05,0,0,1,5.038,0H37.969A5.05,5.05,0,0,1,43.007,5.063Zm-7,23.3a32.911,32.911,0,0,0-3.539-14.328,12.153,12.153,0,0,0-6.906-2.58l-.344.393a16.356,16.356,0,0,1,6.119,3.121,20.882,20.882,0,0,0-18.358-.713c-.909.418-1.45.713-1.45.713a16.58,16.58,0,0,1,6.463-3.219l-.246-.295a12.153,12.153,0,0,0-6.906,2.58A32.911,32.911,0,0,0,7.3,28.36s2.064,3.563,7.5,3.736c0,0,.909-1.106,1.647-2.04a7.643,7.643,0,0,1-4.3-2.9c.362.253.958.581,1.008.614a17.914,17.914,0,0,0,15.335.86,14.063,14.063,0,0,0,2.826-1.45,7.755,7.755,0,0,1-4.448,2.925c.737.934,1.622,1.991,1.622,1.991C33.914,31.924,36,28.36,36,28.36Z"/>
</svg>
