<svg xmlns="http://www.w3.org/2000/svg" width="28.216" height="21.071" viewBox="0 0 28.216 21.071">
  <path id="Union_28" data-name="Union 28" d="M671.155-12263.416a2.589,2.589,0,0,1-.29-.269l-.046-.046q-3.464-3.464-6.924-6.928l-1.091-1.091a2.2,2.2,0,0,1-.009-3.395l2.053-2.057c1.985-1.985,4.039-4.038,6.058-6.061a2.278,2.278,0,0,1,1.634-.74,2.332,2.332,0,0,1,.41.04,2.137,2.137,0,0,1,1.683,1.48,2.133,2.133,0,0,1-.484,2.17c-.065.074-.133.139-.188.194l-.055.056-4.421,4.421h3.083c4.612,0,9.976,0,15.245,0a2.907,2.907,0,0,1,.943.129,2.162,2.162,0,0,1,1.44,2.35,2.177,2.177,0,0,1-2.032,1.887c-.111.006-.213.006-.3.006h-.123q-9.128,0-18.257,0c1.48,1.478,2.993,2.994,4.489,4.486a2.241,2.241,0,0,1,.74,1.64,2.139,2.139,0,0,1-1.224,1.974,2.232,2.232,0,0,1-.977.233A2.218,2.218,0,0,1,671.155-12263.416Zm1.357-.514a1.146,1.146,0,0,1-.593-.174A1.146,1.146,0,0,0,672.512-12263.93Zm.066,0Zm.47-.131a1.57,1.57,0,0,1-.157.066,1.57,1.57,0,0,0,.157-.066,1.128,1.128,0,0,0,.663-1.076A1.128,1.128,0,0,1,673.048-12264.063Zm-9.538-8.392,8.016,8.016a2.755,2.755,0,0,0,.24.23c.039.03.079.059.119.084-.04-.025-.079-.054-.119-.084a2.755,2.755,0,0,1-.24-.23l-8.016-8.016a1.454,1.454,0,0,1-.511-.994A1.454,1.454,0,0,0,663.509-12272.455Zm3.986.19h20.245c.12,0,.24,0,.364-.006a1.162,1.162,0,0,0,1.1-1.036,1.077,1.077,0,0,0,.012-.148,1.077,1.077,0,0,1-.012.148,1.162,1.162,0,0,1-1.1,1.036c-.123.006-.244.006-.364.006Zm5.916-8.721c-.071.077-.145.147-.216.219q-2.923,2.922-5.845,5.848c-.071.071-.139.146-.268.281.129-.136.2-.21.268-.281q2.923-2.927,5.845-5.848c.071-.071.145-.142.216-.219a1.171,1.171,0,0,0,.335-.786A1.171,1.171,0,0,1,673.411-12280.985Zm-.647-1.992c-.035-.007-.07-.012-.1-.016C672.694-12282.989,672.729-12282.984,672.764-12282.978Z" transform="translate(-662.001 12284.001)" fill="#fff"/>
</svg>
