<svg xmlns="http://www.w3.org/2000/svg" xmlns:xlink="http://www.w3.org/1999/xlink" width="36" height="36" viewBox="0 0 36 36">
  <defs>
    <clipPath id="clip-path">
      <rect width="36" height="36" fill="none"/>
    </clipPath>
  </defs>
  <g id="icon_faq_web" clip-path="url(#clip-path)">
    <path id="Path_4" data-name="Path 4" d="M5.4,5.4A16.341,16.341,0,0,1,18,0,16.341,16.341,0,0,1,30.6,5.4,16.341,16.341,0,0,1,36,18a16.341,16.341,0,0,1-5.4,12.6A16.341,16.341,0,0,1,18,36,16.341,16.341,0,0,1,5.4,30.6C2.1,27,0,23.1,0,18A16.341,16.341,0,0,1,5.4,5.4Zm15,27q1.8,0,4.5-2.7A13.1,13.1,0,0,0,27,23.4a4.968,4.968,0,0,0-1.5-3.6A5.281,5.281,0,0,0,21.6,18h-3a8.76,8.76,0,0,1-2.7-.6,2.723,2.723,0,0,1-.9-2.1,1.559,1.559,0,0,1,.6-1.2,2.274,2.274,0,0,1,1.2-.6,2.048,2.048,0,0,1,1.5.9c.6.3.9.6,1.2.6a1.8,1.8,0,0,0,1.2-.3,1.8,1.8,0,0,0,.3-1.2,4.774,4.774,0,0,0-1.5-3A12.409,12.409,0,0,0,21,4.8a.645.645,0,0,0-.6-.6A9.274,9.274,0,0,0,18,3.6c-3.3.3-5.7.9-7.8,2.4a7.553,7.553,0,0,0-2.7,6,7.681,7.681,0,0,0,2.4,5.7,8.2,8.2,0,0,0,5.7,2.4h0v1.2a3.852,3.852,0,0,0,1.2,3,4.369,4.369,0,0,0,2.7,1.8v5.4c0,.3,0,.3.3.6S20.1,32.4,20.4,32.4Z" transform="translate(0 0)" fill="#747474"/>
  </g>
</svg>
