<svg xmlns="http://www.w3.org/2000/svg" width="43" height="43" viewBox="0 0 43 43">
  <g id="Group_21246" data-name="Group 21246" transform="translate(-559.177 -396.177)">
    <circle id="Ellipse_8767" data-name="Ellipse 8767" cx="21.5" cy="21.5" r="21.5" transform="translate(559.177 396.177)" fill="#f3ba2f"/>
    <g id="Layer_2" data-name="Layer 2" transform="translate(567.803 404.803)">
      <g id="Layer_1" data-name="Layer 1">
        <path id="Path_54594" data-name="Path 54594" d="M7.975,10.959,13.04,5.894l5.067,5.067,2.947-2.947L13.04,0,5.028,8.012l2.947,2.947M0,13.04l2.947-2.948L5.894,13.04,2.947,15.987Zm7.975,2.081,5.065,5.065,5.067-5.067,2.949,2.946v0L13.04,26.08,5.028,18.069l0,0,2.951-2.943m12.211-2.08,2.947-2.947,2.947,2.947-2.947,2.947Z" fill="#01012a"/>
        <path id="Path_54595" data-name="Path 54595" d="M969.171,966.18h0l-2.99-2.99-2.21,2.21h0l-.254.254-.524.524,0,0,0,0,2.988,2.988,2.99-2.99,0,0,0,0" transform="translate(-953.142 -953.142)" fill="#01012a"/>
      </g>
    </g>
  </g>
</svg>
