<svg width="13" height="13" viewBox="0 0 13 13" fill="none" xmlns="http://www.w3.org/2000/svg">
<g clip-path="url(#clip0_532_761)">
<path d="M9.481 0H3.51898C1.57858 0 0 1.57858 0 3.51898V9.4811C0 11.4214 1.57858 13 3.51898 13H9.4811C11.4214 13 13 11.4214 13 9.4811V3.51898C13 1.57858 11.4214 0 9.481 0V0ZM12.2379 9.4811C12.2379 11.0012 11.0012 12.2379 9.481 12.2379H3.51898C1.99881 12.2379 0.762114 11.0012 0.762114 9.4811V3.51898C0.762114 1.99881 1.99881 0.762114 3.51898 0.762114H9.4811C11.0012 0.762114 12.2379 1.99881 12.2379 3.51898V9.4811Z" fill="black"/>
<path d="M6.49989 2.94531C4.53986 2.94531 2.94531 4.53986 2.94531 6.49989C2.94531 8.45993 4.53986 10.0545 6.49989 10.0545C8.45993 10.0545 10.0545 8.45993 10.0545 6.49989C10.0545 4.53986 8.45993 2.94531 6.49989 2.94531ZM6.49989 9.29236C4.96019 9.29236 3.70743 8.03969 3.70743 6.49989C3.70743 4.96019 4.96019 3.70743 6.49989 3.70743C8.03969 3.70743 9.29236 4.96019 9.29236 6.49989C9.29236 8.03969 8.03969 9.29236 6.49989 9.29236Z" fill="black"/>
<path d="M10.1402 1.68359C9.56096 1.68359 9.08984 2.15481 9.08984 2.73393C9.08984 3.31315 9.56096 3.78437 10.1402 3.78437C10.7194 3.78437 11.1906 3.31315 11.1906 2.73393C11.1906 2.15471 10.7194 1.68359 10.1402 1.68359ZM10.1402 3.02215C9.98129 3.02215 9.85196 2.89282 9.85196 2.73393C9.85196 2.57494 9.98129 2.44571 10.1402 2.44571C10.2992 2.44571 10.4285 2.57494 10.4285 2.73393C10.4285 2.89282 10.2992 3.02215 10.1402 3.02215Z" fill="black"/>
</g>
<defs>
<clipPath id="clip0_532_761">
<rect width="13" height="13" fill="white"/>
</clipPath>
</defs>
</svg>
