<svg xmlns="http://www.w3.org/2000/svg" width="25.25" height="25.216" viewBox="0 0 25.25 25.216">
  <g id="Group_21255" data-name="Group 21255" transform="translate(787.777 -102.388)">
    <path id="Path_54608" data-name="Path 54608" d="M-760.974,103.443a.961.961,0,0,0-.421-.886,1.7,1.7,0,0,0-.272-.132l-.086-.037h-9.684c-.053.025-.092.041-.132.055a.951.951,0,0,0-.586.581.916.916,0,0,0,.095.8.983.983,0,0,0,.934.449h0l6.912-.006-.749.75s-6.461,6.483-9.566,9.59a2.573,2.573,0,0,0-.242.266.91.91,0,0,0-.135.842.9.9,0,0,0,.591.594.99.99,0,0,0,1.084-.337q3.712-3.72,7.429-7.432l2.938-2.889v6.923a.956.956,0,0,0,.459.905.929.929,0,0,0,.938.02,1.014,1.014,0,0,0,.492-.927q-.005-3,0-6Z" transform="translate(-1.555 0)" fill="#0bd7e7"/>
    <path id="Path_54609" data-name="Path 54609" d="M-776.208,102.389a3.212,3.212,0,0,0-.863,1.84h-7.771a.951.951,0,0,0-1.09,1.094q0,9.675,0,19.351a.955.955,0,0,0,1.1,1.09h19.377a.956.956,0,0,0,1.093-1.093V116.93a3.191,3.191,0,0,0,1.82-.849c.008.108.018.177.018.245q0,4.218,0,8.435a2.753,2.753,0,0,1-2.853,2.842h-19.525a2.758,2.758,0,0,1-2.866-2.859q-.007-9.75,0-19.5a2.75,2.75,0,0,1,2.867-2.854q4.2,0,8.41,0Z" transform="translate(0 0)" fill="#0bd7e7"/>
  </g>
</svg>
