<svg xmlns="http://www.w3.org/2000/svg" width="20.26" height="19.415" viewBox="0 0 20.26 19.415">
  <path id="Path_54617" data-name="Path 54617" d="M-3223.3-269.6a1.8,1.8,0,0,1-.609.824c-1.344,1.168-2.678,2.346-4.021,3.515a.308.308,0,0,0-.116.35c.419,1.815.828,3.633,1.243,5.45a1.062,1.062,0,0,1-.389,1.18,1.055,1.055,0,0,1-1.258.031c-1.594-.954-3.19-1.9-4.78-2.866a.333.333,0,0,0-.4.007q-2.379,1.432-4.765,2.852a1.081,1.081,0,0,1-1.472-.219,1.092,1.092,0,0,1-.193-.954c.414-1.817.825-3.634,1.245-5.449a.351.351,0,0,0-.128-.4q-2.1-1.829-4.2-3.673a1.046,1.046,0,0,1-.36-1.171,1.025,1.025,0,0,1,.945-.751q1.673-.158,3.347-.307c.775-.07,1.549-.142,2.324-.207a.241.241,0,0,0,.227-.174c.731-1.721,1.469-3.438,2.2-5.159a1.1,1.1,0,0,1,.957-.745,1.075,1.075,0,0,1,1.1.732c.673,1.574,1.366,3.139,2,4.727a.9.9,0,0,0,.906.674c1.663.113,3.322.3,4.983.428a1.21,1.21,0,0,1,1.208.912Z" transform="translate(3243.565 277.469)" fill="#fff"/>
</svg>
