<svg width="11" height="11" viewBox="0 0 11 11" fill="none" xmlns="http://www.w3.org/2000/svg">
<g clip-path="url(#clip0_532_775)">
<rect width="11" height="11" fill="white"/>
<path d="M10.9971 10.9993V10.9988H10.9998V6.96458C10.9998 4.99099 10.575 3.4707 8.26771 3.4707C7.15854 3.4707 6.41421 4.07937 6.11033 4.65641H6.07825V3.65495H3.89062V10.9988H6.16854V7.36241C6.16854 6.40495 6.35004 5.47912 7.53575 5.47912C8.70404 5.47912 8.72146 6.57179 8.72146 7.42383V10.9993H10.9971Z" fill="black"/>
<path d="M0.179688 3.65625H2.46035V11.0001H0.179688V3.65625Z" fill="black"/>
<path d="M1.32092 0C0.591708 0 0 0.591708 0 1.32092C0 2.05013 0.591708 2.65421 1.32092 2.65421C2.05013 2.65421 2.64183 2.05013 2.64183 1.32092C2.64138 0.591708 2.04967 0 1.32092 0V0Z" fill="black"/>
</g>
<defs>
<clipPath id="clip0_532_775">
<rect width="11" height="11" fill="white"/>
</clipPath>
</defs>
</svg>
