<svg xmlns="http://www.w3.org/2000/svg" width="17.103" height="21.477" viewBox="0 0 17.103 21.477">
  <g id="Group_22105" data-name="Group 22105" transform="translate(-24.261 0.022)">
    <path id="Path_76884" data-name="Path 76884" d="M31.8,12.368q-.036.029-.069.06a1.487,1.487,0,0,0-.083,2.1,1.1,1.1,0,0,1,.323.937c-.006.118,0,.236,0,.355,0,.272-.008.544,0,.817a1.123,1.123,0,0,0,.077.384.832.832,0,0,0,1.592-.33c.009-.558.006-1.116,0-1.674a.312.312,0,0,1,.134-.278A1.544,1.544,0,1,0,31.8,12.368Z" fill="#38385b"/>
    <path id="Path_76885" data-name="Path 76885" d="M41.354,10.29a2.461,2.461,0,0,0-2.12-2.368c-.551-.067-1.115-.033-1.673-.045h-.225v0H34.8L30,7.871l-.03-.212V7.652h0l-.4-2.769a2.794,2.794,0,0,1,2.153-3.136,2.842,2.842,0,0,1,3.327,1.7,2.564,2.564,0,0,1,.149.564l.049.345,1.66-.237-.04-.278A4.419,4.419,0,0,0,33.326.1a11.586,11.586,0,0,0-1.161-.118L31.336.09a10,10,0,0,0-.958.367A4.436,4.436,0,0,0,27.912,5.2l.369,2.579v.092H26.863c-.058,0-.117,0-.175,0a2.514,2.514,0,0,0-2.425,2.6v8.381c0,.056,0,.112,0,.168a2.512,2.512,0,0,0,2.588,2.432q5.961.006,11.922,0a2.723,2.723,0,0,0,.623-.063A2.5,2.5,0,0,0,41.36,18.9V12.322C41.36,11.645,41.372,10.967,41.354,10.29Zm-1.666,8.516a.888.888,0,0,1,0,.247.863.863,0,0,1-.979.728h-11.8a.858.858,0,0,1-.97-.964v-8.3a.893.893,0,0,1,0-.231.86.86,0,0,1,.969-.733h5.909l5.891,0a.9.9,0,0,1,.248,0,.863.863,0,0,1,.733.976Z" fill="#38385b"/>
  </g>
</svg>
