<svg id="Group_20551" data-name="Group 20551" xmlns="http://www.w3.org/2000/svg" width="17.103" height="21.458" viewBox="0 0 17.103 21.458">
  <path id="Path_31826" data-name="Path 31826" d="M152.223,367.6a11.622,11.622,0,0,1,1.132.281,4.418,4.418,0,0,1,2.974,4.212c0,1.041,0,2.081,0,3.122v.264c.08,0,.153,0,.225,0,.558.012,1.122-.022,1.673.045a2.461,2.461,0,0,1,2.12,2.368c.018.677.006,1.355.006,2.032q0,3.289,0,6.579a2.5,2.5,0,0,1-1.965,2.488,2.779,2.779,0,0,1-.623.063q-5.961.006-11.922,0a2.511,2.511,0,0,1-2.587-2.6q0-4.19,0-8.381a2.514,2.514,0,0,1,2.6-2.6h1.418v-.246q0-1.529,0-3.059a4.434,4.434,0,0,1,3.112-4.346,9.767,9.767,0,0,1,1-.228Zm-.414,9.555H145.9a.859.859,0,0,0-.969.964q0,4.148,0,8.3a.859.859,0,0,0,.97.964h11.8a.863.863,0,0,0,.98-.975v-8.276a.863.863,0,0,0-.981-.975Zm2.837-1.68c0-.059.007-.1.007-.14,0-1.1,0-2.206,0-3.309a2.58,2.58,0,0,0-.068-.58,2.84,2.84,0,0,0-3.052-2.157,2.793,2.793,0,0,0-2.575,2.8c0,1.061,0,2.122,0,3.184v.2Z" transform="translate(-143.254 -367.602)" fill="#38385b"/>
  <path id="Path_31827" data-name="Path 31827" d="M158.179,395.793c0-.119-.006-.237,0-.355a1.1,1.1,0,0,0-.323-.937,1.487,1.487,0,0,1,.152-2.161,1.544,1.544,0,1,1,1.978,2.372.313.313,0,0,0-.134.278c.006.558.009,1.116,0,1.674a.832.832,0,0,1-1.592.33,1.133,1.133,0,0,1-.077-.384C158.171,396.337,158.179,396.065,158.179,395.793Z" transform="translate(-150.468 -379.972)" fill="#38385b"/>
</svg>
