<svg width="296" height="70" viewBox="0 0 296 70" fill="none" xmlns="http://www.w3.org/2000/svg">
<path fill-rule="evenodd" clip-rule="evenodd" d="M64.018 3.71879L63.1327 0L62.2461 3.71879C62.1159 4.26455 61.8369 4.76351 61.4402 5.16025C61.0434 5.557 60.5445 5.83598 59.9987 5.96621L56.2799 6.85152L59.9987 7.73806C60.5445 7.86816 61.0435 8.1471 61.4403 8.54387C61.8371 8.94063 62.116 9.43966 62.2461 9.98548L63.1327 13.7043L64.018 9.98548C64.1482 9.43973 64.4272 8.94076 64.8239 8.54402C65.2207 8.14727 65.7196 7.86829 66.2654 7.73806L69.9842 6.85152L66.2654 5.96621C65.7197 5.83585 65.2208 5.55682 64.8241 5.1601C64.4274 4.76338 64.1483 4.26448 64.018 3.71879ZM62.9188 62.9291C60.6777 65.1708 58.0169 66.9489 55.0885 68.1621C52.16 69.3753 49.0213 69.9997 45.8515 69.9997C42.6817 69.9997 39.5429 69.3753 36.6145 68.1621C33.6861 66.9489 31.0253 65.1708 28.7842 62.9291L1.69844 35.8223C1.36119 35.4846 1.13168 35.0545 1.03893 34.5864C0.946188 34.1182 0.994381 33.633 1.17741 33.1923C1.36044 32.7515 1.67009 32.375 2.06718 32.1102C2.46427 31.8455 2.93095 31.7044 3.40821 31.705H9.24405C9.64744 31.705 10.0444 31.604 10.3987 31.411C10.753 31.2181 11.0533 30.9395 11.2721 30.6006C11.4909 30.2617 11.6213 29.8734 11.6514 29.4712C11.6815 29.0689 11.6103 28.6655 11.4443 28.2978L0.213403 3.41483C0.0118722 2.96795 -0.048811 2.4703 0.0394189 1.98808C0.127649 1.50587 0.360608 1.06194 0.707315 0.715368C1.05402 0.368796 1.49804 0.136007 1.98029 0.047965C2.46254 -0.0400774 2.96016 0.0208034 3.40697 0.222508L28.2862 11.4559C28.6539 11.6219 29.0573 11.6931 29.4596 11.663C29.8618 11.6329 30.2502 11.5025 30.589 11.2837C30.9279 11.0648 31.2065 10.7646 31.3995 10.4103C31.5924 10.056 31.6934 9.65903 31.6934 9.25563V3.4198C31.6933 2.9435 31.8343 2.47784 32.0984 2.08151C32.3626 1.68517 32.7381 1.3759 33.1778 1.19266C33.6174 1.00943 34.1015 0.960417 34.5689 1.05182C35.0364 1.14323 35.4663 1.37095 35.8045 1.7063C44.4663 10.3638 57.7642 23.6478 61.7499 27.6293L61.7662 27.6456L62.9163 28.7945C67.4417 33.3215 69.9841 39.4603 69.9846 45.8613C69.985 52.2623 67.4435 58.4015 62.9188 62.9291ZM55.5792 42.0054C54.39 45.0931 52.5665 47.8971 50.2263 50.2362C47.8846 52.5707 45.0819 54.3914 41.9971 55.582C38.9123 56.7726 35.6132 57.307 32.3103 57.1511C31.8697 57.1315 31.4402 57.0068 31.0576 56.7873C30.6751 56.5678 30.3506 56.26 30.1113 55.8895C27.8344 52.3074 26.8463 48.0563 27.3098 43.8372C27.7733 39.6181 29.6609 35.6829 32.6612 32.6806C35.6615 29.6783 39.5954 27.7881 43.8142 27.3217C48.033 26.8553 52.2848 27.8406 55.8684 30.115C56.2384 30.354 56.5459 30.6779 56.7653 31.0597C56.9848 31.4416 57.1098 31.8703 57.1299 32.3103C57.2966 35.6149 56.7683 38.9177 55.5792 42.0054ZM61.4152 35.7053C61.5056 35.7412 61.5824 35.8044 61.635 35.8862H61.6338C63.9003 39.4696 64.8796 43.7178 64.4106 47.9318C63.9415 52.1458 62.0519 56.0747 59.0528 59.0719C56.0537 62.0691 52.1237 63.9562 47.9093 64.4227C43.695 64.8891 39.4474 63.9071 35.8655 61.6383C35.7844 61.5853 35.7219 61.5084 35.6865 61.4183C35.6511 61.3281 35.6447 61.2292 35.668 61.1352C35.6913 61.0412 35.7433 60.9568 35.8167 60.8937C35.8901 60.8306 35.9814 60.7918 36.0778 60.7828C42.4216 60.1785 48.3569 57.3841 52.8645 52.8797C57.3722 48.3752 60.1707 42.4418 60.7795 36.0985C60.7878 36.0017 60.8261 35.9098 60.8892 35.8359C60.9523 35.762 61.037 35.7096 61.1313 35.6862C61.2256 35.6628 61.3249 35.6695 61.4152 35.7053Z" fill="white"/>
<path d="M94.8118 52.022H101.183C103.216 52.022 105.143 51.7338 106.963 51.1573C108.814 50.5505 110.361 49.6555 111.605 48.4722C112.879 47.2586 113.638 45.7265 113.881 43.8757C114.093 42.4801 113.941 41.2665 113.425 40.2349C112.94 39.2033 112.182 38.3538 111.15 37.6863C110.149 37.0188 108.981 36.5334 107.646 36.23C106.311 35.8963 104.915 35.7294 103.459 35.7294H91.262L85.8008 67.5865H99.3628C101.699 67.5865 103.853 67.2983 105.825 66.7218C107.797 66.1454 109.436 65.2048 110.74 63.9002C112.045 62.5956 112.849 60.8662 113.152 58.712C113.365 57.104 113.168 55.7235 112.561 54.5706C111.984 53.3873 111.135 52.4316 110.012 51.7035C108.89 50.945 107.615 50.3837 106.189 50.0196C104.794 49.6555 103.383 49.4735 101.957 49.4735H95.2669L94.4477 54.2976H100.501C101.259 54.2976 101.942 54.3886 102.549 54.5706C103.186 54.7527 103.671 55.0712 104.005 55.5263C104.369 55.9814 104.49 56.5882 104.369 57.3467C104.248 58.2266 103.914 58.9244 103.368 59.4402C102.822 59.956 102.154 60.3201 101.365 60.5324C100.607 60.7145 99.8028 60.8207 98.9532 60.851H95.631L98.8622 42.4649H101.684C102.715 42.4649 103.504 42.6924 104.05 43.1476C104.627 43.6027 104.839 44.3005 104.688 45.241C104.566 45.8782 104.293 46.4243 103.868 46.8794C103.444 47.3345 102.928 47.6834 102.321 47.9261C101.714 48.1688 101.032 48.3054 100.273 48.3357H95.4945L94.8118 52.022Z" fill="white"/>
<path d="M129.144 51.658C129.356 50.4444 129.736 49.3218 130.282 48.2902C130.828 47.2283 131.51 46.2878 132.33 45.4686C133.179 44.6494 134.135 44.0274 135.197 43.6027C136.289 43.1476 137.457 42.92 138.701 42.92C139.975 42.92 141.037 43.1627 141.887 43.6482C142.736 44.1336 143.404 44.7859 143.889 45.6051C144.375 46.4243 144.678 47.3648 144.799 48.4267C144.951 49.4583 144.951 50.5354 144.799 51.658C144.587 52.8412 144.208 53.9638 143.662 55.0257C143.116 56.0876 142.418 57.0282 141.568 57.8473C140.719 58.6362 139.763 59.2582 138.701 59.7133C137.639 60.1684 136.471 60.3808 135.197 60.3504C133.983 60.3504 132.952 60.1077 132.102 59.6222C131.253 59.1368 130.57 58.4845 130.054 57.6653C129.569 56.8461 129.25 55.9207 129.098 54.8892C128.977 53.8576 128.992 52.7805 129.144 51.658ZM119.951 51.658C119.617 53.9638 119.708 56.1483 120.224 58.2114C120.74 60.2746 121.62 62.095 122.864 63.6727C124.138 65.2503 125.746 66.4943 127.688 67.4045C129.629 68.3147 131.829 68.7698 134.287 68.7698C136.805 68.7698 139.171 68.3299 141.386 67.45C143.631 66.5701 145.634 65.3565 147.394 63.8092C149.153 62.2618 150.594 60.4566 151.717 58.3935C152.87 56.3 153.628 54.0548 153.993 51.658C154.296 49.3218 154.175 47.1524 153.628 45.15C153.113 43.1172 152.202 41.3423 150.898 39.8253C149.624 38.278 148.016 37.0795 146.074 36.23C144.162 35.3501 141.993 34.9102 139.566 34.9102C137.108 34.9102 134.772 35.335 132.557 36.1845C130.373 37.0037 128.401 38.1718 126.641 39.6888C124.881 41.1754 123.41 42.9352 122.226 44.968C121.073 47.0007 120.315 49.2307 119.951 51.658Z" fill="white"/>
<path d="M188.714 52.6137L183.299 34L171.967 52.4771L169.418 35.7294H159.224L167.734 69.68L180.705 52.0676L188.123 69.589L207.146 35.7294H196.633L188.714 52.6137Z" fill="white"/>
<path d="M212.8 35.7294L207.339 67.5865H228.547L229.867 60.0773H217.351L221.493 35.7294H212.8Z" fill="white"/>
<path d="M240.048 67.5865H255.749L257.023 60.4414H241.277L240.048 67.5865ZM244.28 42.8745H259.981L261.256 35.7294H245.509L244.28 42.8745ZM242.278 54.4796H257.114L258.343 47.562H243.507L242.278 54.4796ZM239.684 35.7294L234.223 67.5865H242.551L248.012 35.7294H239.684Z" fill="white"/>
<path d="M269.5 35.7294L264.039 67.5865H273.096L278.557 35.7294H269.5ZM275.963 67.5865C278.542 67.5865 280.923 67.2073 283.108 66.4488C285.323 65.6903 287.28 64.6284 288.979 63.2631C290.678 61.8674 292.074 60.1987 293.166 58.2569C294.288 56.2848 295.032 54.0852 295.396 51.658C295.76 49.2914 295.669 47.1373 295.123 45.1955C294.607 43.2537 293.697 41.585 292.392 40.1894C291.118 38.7634 289.51 37.6712 287.568 36.9127C285.626 36.1238 283.396 35.7294 280.878 35.7294H275.326L273.96 43.4206H279.695C280.848 43.4206 281.879 43.5875 282.789 43.9212C283.7 44.255 284.458 44.7708 285.065 45.4686C285.672 46.1361 286.081 46.9856 286.294 48.0171C286.536 49.0487 286.552 50.2623 286.339 51.658C286.066 53.5694 285.444 55.1319 284.473 56.3455C283.502 57.5591 282.319 58.4542 280.923 59.0306C279.528 59.5767 278.041 59.8498 276.463 59.8498H271.23L269.819 67.5865H275.963Z" fill="white"/>
</svg>
