<svg xmlns="http://www.w3.org/2000/svg" width="949.605" height="315.13" viewBox="0 0 949.605 315.13"><g transform="translate(-95.5 -90.3)"><g transform="translate(95.5 90.3)"><path d="M278.711,144.3v71.844l-7.729,3.689L156.629,273.057l-7.378,3.513v15.282l-23.362,10.715v-79.4L95.5,237.4V229.67l30.389-14.228,23.362-10.715,7.378-3.513,114.353-53.224Z" transform="translate(-95.5 -49.445)" fill="#fff"/><path d="M312.808,157.05V164.6L282.6,178.656l-23.011,10.715V173.737l-7.2,3.337-7.729,3.689L130.3,234.164V161.441l114.353-53.4,7.729-3.689,7.2-3.337L282.6,90.3v80.8Z" transform="translate(-69.171 -90.3)" fill="#fff"/><path d="M282.6,271.114v-76.06L312.808,181v-7.2L282.6,187.677l-23.011,10.891-7.2,3.337-7.729,3.513L130.3,258.818v83.437Z" transform="translate(-69.171 -27.126)" fill="#fff"/><g transform="translate(307.928 110.84)"><path d="M321.038,174.4H293.811v14.58h25.646v19.5H293.811v15.107h27.227v19.5H270.8V154.9h50.238Z" transform="translate(-270.8 -152.265)" fill="#fff"/><path d="M377.658,227.8H344.986l-5.27,15.282H315.3l33.551-88.18h24.943l33.551,88.18H382.928Zm-5.972-17.39-10.364-29.335-10.364,29.335Z" transform="translate(-237.132 -152.265)" fill="#fff"/><path d="M433.47,178.519a26.317,26.317,0,0,0-7.553-4.567,18.1,18.1,0,0,0-7.2-1.405,11.333,11.333,0,0,0-7.2,2.108A6.3,6.3,0,0,0,408.7,180.1a5.788,5.788,0,0,0,1.405,3.864A9.961,9.961,0,0,0,413.8,186.6a34.264,34.264,0,0,0,5.094,1.932,52.572,52.572,0,0,1,5.621,1.757c7.553,2.459,13,5.8,16.512,10.013s5.27,9.661,5.27,16.336a30.691,30.691,0,0,1-2.284,12.3,25.869,25.869,0,0,1-6.675,9.486,33.584,33.584,0,0,1-10.715,6.148,45.983,45.983,0,0,1-14.4,2.108A52.757,52.757,0,0,1,381.3,236.662l9.837-18.444a47.088,47.088,0,0,0,10.188,6.851,25.9,25.9,0,0,0,10.013,2.284q5.533,0,8.432-2.635a8.283,8.283,0,0,0,2.811-5.8,7.4,7.4,0,0,0-.7-3.513,6.565,6.565,0,0,0-2.284-2.635,15.651,15.651,0,0,0-4.216-2.284c-1.757-.7-3.865-1.405-6.324-2.284a87.916,87.916,0,0,1-8.783-3.162,23.494,23.494,0,0,1-7.553-4.567,21.605,21.605,0,0,1-5.445-7.026,24.55,24.55,0,0,1-2.108-10.891,32.821,32.821,0,0,1,2.108-11.945,25.42,25.42,0,0,1,6.148-9.134,28.128,28.128,0,0,1,9.661-5.972,36.748,36.748,0,0,1,12.647-2.108,54.314,54.314,0,0,1,13.7,1.757,64.931,64.931,0,0,1,13.7,5.27Z" transform="translate(-187.198 -153.4)" fill="#fff"/><path d="M474.731,174.4V243.08H451.9V174.4H433.1V154.9h60.426v19.5Z" transform="translate(-148.008 -152.265)" fill="#fff"/></g></g><g transform="translate(818.156 203.775)"><path d="M506.9,154.9h19.322l34.956,61.3V154.9h17.039v88H559.773l-35.834-62.358V242.9H506.9v-88Z" transform="translate(-506.9 -154.9)" fill="#fff"/><path d="M557.3,155h62.71v15.458H575.568v20.2h39v15.282h-39v36.888H557.3Z" transform="translate(-468.769 -154.824)" fill="#fff"/><path d="M666.741,154.9v15.634H640.393V242.9H621.949V170.534H595.6V154.9h71.141Z" transform="translate(-439.792 -154.9)" fill="#fff"/></g></g></svg>