<svg xmlns="http://www.w3.org/2000/svg" width="14.377" height="11.495" viewBox="0 0 14.377 11.495">
  <path id="Path_54602" data-name="Path 54602" d="M-818.908,596.287a.818.818,0,0,0,.586-.9q-.013-5.381,0-10.763v-.247c.073.067.12.107.163.151q1.787,1.786,3.572,3.574a.782.782,0,0,0,.573.276.68.68,0,0,0,.64-.388.685.685,0,0,0-.067-.76,1.4,1.4,0,0,0-.147-.162l-4.871-4.871a.731.731,0,0,0-1.159,0q-2.442,2.441-4.884,4.882a.772.772,0,0,0-.273.689.678.678,0,0,0,.449.563.684.684,0,0,0,.711-.116c.056-.046.108-.1.16-.15q1.763-1.762,3.524-3.527a.868.868,0,0,0,.106-.171l.071.047v.193q0,5.415,0,10.83a.784.784,0,0,0,.3.71,2.016,2.016,0,0,0,.284.141Z" transform="translate(596.287 824.788) rotate(90)" fill="#aeaedc"/>
</svg>
