<svg xmlns="http://www.w3.org/2000/svg" width="22.403" height="16.452" viewBox="0 0 22.403 16.452">
  <path id="Path_54613" data-name="Path 54613" d="M-2044.708-402.161a3.189,3.189,0,0,0-.371-2.2,1.13,1.13,0,0,1-.055-.137l-4.12-5.008c-.493-.328-.972-.692-1.482-.974a3.844,3.844,0,0,0-1.9-.45c-4.877.006-7.021,0-11.9,0a2.6,2.6,0,0,0-2.492,2.555,5.36,5.36,0,0,0-.021.554q0,5.127,0,10.253c0,1.843,1.016,3.084,2.533,3.085,4.87,0,7.006,0,11.876,0a4.9,4.9,0,0,0,3.257-1.333,1.319,1.319,0,0,1,.131-.09l4.12-5.008A9.035,9.035,0,0,0-2044.708-402.161Z" transform="translate(2067.052 410.934)" fill="#fff"/>
</svg>
