<svg xmlns="http://www.w3.org/2000/svg" width="30.07" height="14.54" viewBox="0 0 30.07 14.54">
  <g id="Group_21234" data-name="Group 21234" transform="translate(1811.317 13.948)">
    <path id="Path_54593" data-name="Path 54593" d="M-1811.317-6.913a1.341,1.341,0,0,1,1.464-.946q12.078.019,24.155.008h.419c-.117-.122-.192-.2-.27-.28q-1.9-1.891-3.807-3.782a1.145,1.145,0,0,1-.322-1.207,1.106,1.106,0,0,1,.861-.8,1.171,1.171,0,0,1,1.143.368q2.131,2.119,4.266,4.235c.527.523,1.067,1.035,1.574,1.576a7.09,7.09,0,0,1,.584.823v.469a5.922,5.922,0,0,1-.583.823q-2.9,2.907-5.821,5.79a1.179,1.179,0,0,1-1.68.128,1.165,1.165,0,0,1-.02-1.739q1.9-1.9,3.806-3.782a2.2,2.2,0,0,1,.257-.191l-.046-.091h-.333q-12.091,0-24.183.008a1.343,1.343,0,0,1-1.465-.946Z" transform="translate(0)" fill="#ff2b6e"/>
  </g>
</svg>
