<svg xmlns="http://www.w3.org/2000/svg" width="14.584" height="15.105" viewBox="0 0 14.584 15.105">
  <g id="Group_22284" data-name="Group 22284" transform="translate(79.574 -359.289)">
    <path id="Path_76907" data-name="Path 76907" d="M-65.938,374.394a1.485,1.485,0,0,1-.621-.451q-1.647-1.72-3.3-3.433l-.113-.123a6.034,6.034,0,0,1-5.275.829,5.89,5.89,0,0,1-3.3-2.459,6.053,6.053,0,0,1,1.188-8.054,6.048,6.048,0,0,1,7.8.017,6.04,6.04,0,0,1,1.818,2.584,5.954,5.954,0,0,1,.275,3.134,6.04,6.04,0,0,1-1.337,2.868l.208.22,3.332,3.463a.79.79,0,0,1,.047,1.156,1.993,1.993,0,0,1-.424.249Zm-7.533-13.507a4.513,4.513,0,0,0-4.5,4.5,4.513,4.513,0,0,0,4.509,4.508,4.508,4.508,0,0,0,4.5-4.506A4.51,4.51,0,0,0-73.471,360.886Z" transform="translate(0 0)" fill="#ccccd4"/>
  </g>
</svg>
