<svg xmlns="http://www.w3.org/2000/svg" width="17.35" height="17.348" viewBox="0 0 17.35 17.348">
  <g id="Group_1305" data-name="Group 1305" transform="translate(-18938.557 -12802.771)">
    <g id="Group_994" data-name="Group 994" transform="translate(18938.557 12802.771)">
      <path id="Path_789" data-name="Path 789" d="M-3602.679-273.662h-.881a.93.93,0,0,1-.13.028,7.111,7.111,0,0,0-2.938.837,7.477,7.477,0,0,0-3.949,5.349c-.059.3-.089.6-.132.9v.949c.026.206.046.413.079.618a7.329,7.329,0,0,0,2.937,4.948,7.376,7.376,0,0,0,7.6.905,17.11,17.11,0,0,0,1.551-.827c.131.141.289.325.461.5q1.419,1.407,2.845,2.808a1.092,1.092,0,0,0,1.564.01,1.082,1.082,0,0,0-.04-1.561q-1.589-1.6-3.185-3.187c-.046-.046-.091-.1-.139-.146l.115-.164a7.466,7.466,0,0,0,1.349-5.124,7.349,7.349,0,0,0-1.909-4.32,7.419,7.419,0,0,0-4.278-2.387C-3602.065-273.585-3602.373-273.619-3602.679-273.662Zm-5.861,7.6a5.421,5.421,0,0,1,5.413-5.425,5.427,5.427,0,0,1,5.426,5.415,5.428,5.428,0,0,1-5.416,5.425A5.421,5.421,0,0,1-3608.54-266.067Z" transform="translate(3610.709 273.662)" fill="#fff"/>
    </g>
  </g>
</svg>
