<svg xmlns="http://www.w3.org/2000/svg" width="23.592" height="27.096" viewBox="0 0 23.592 27.096">
  <path id="Path_54605" data-name="Path 54605" d="M-381.361,369.771c.212.049.427.092.638.148a4.439,4.439,0,0,1,3.31,4.433,4.431,4.431,0,0,1-3.8,4.241,4.336,4.336,0,0,1-3.677-1.168c-.071-.065-.141-.133-.211-.2a.314.314,0,0,0-.049-.021l-7.272,4.5a4.5,4.5,0,0,1,0,3.219l7.284,4.511c.15-.135.295-.274.448-.4a4.419,4.419,0,0,1,5.112-.418,4.448,4.448,0,0,1,2.08,4.717,4.446,4.446,0,0,1-3.712,3.482.846.846,0,0,0-.146.048h-.953a10.945,10.945,0,0,1-1.381-.419,4.388,4.388,0,0,1-2.377-5.337.321.321,0,0,0-.167-.456c-2.29-1.4-4.572-2.824-6.856-4.239-.052-.032-.106-.061-.179-.1a4.425,4.425,0,0,1-3.973,1.385A4.26,4.26,0,0,1-400,386.112a4.41,4.41,0,0,1,.376-6,4.462,4.462,0,0,1,6.359.21l.889-.551q3.1-1.92,6.2-3.837a.236.236,0,0,0,.121-.335,4.422,4.422,0,0,1,3.615-5.79.723.723,0,0,0,.123-.043Zm-.493,25.473a2.813,2.813,0,0,0,2.822-2.793,2.818,2.818,0,0,0-2.808-2.835,2.811,2.811,0,0,0-2.82,2.794A2.807,2.807,0,0,0-381.854,395.244Zm.012-23.85a2.8,2.8,0,0,0-2.817,2.794,2.814,2.814,0,0,0,2.781,2.833,2.821,2.821,0,0,0,2.847-2.8A2.811,2.811,0,0,0-381.842,371.394Zm-17.533,11.93a2.807,2.807,0,0,0,2.806,2.807,2.813,2.813,0,0,0,2.823-2.818,2.811,2.811,0,0,0-2.834-2.806A2.806,2.806,0,0,0-399.374,383.324Z" transform="translate(401 -369.771)" fill="#0bd7e7"/>
</svg>
