<svg xmlns="http://www.w3.org/2000/svg" width="19.832" height="19.828" viewBox="0 0 19.832 19.828">
  <g id="Group_22265" data-name="Group 22265" transform="translate(-446 -1088)">
    <g id="Group_21258" data-name="Group 21258" transform="translate(3145.693 1407.857)">
      <path id="Path_54614" data-name="Path 54614" d="M-2654.084-309.965q0-4.514,0-9.028c0-.608.253-.863.857-.863h3.984a.727.727,0,0,1,.824.83q0,9.084,0,18.168a.729.729,0,0,1-.824.83h-4.028a.725.725,0,0,1-.813-.819Q-2654.085-305.407-2654.084-309.965Z" transform="translate(-38.526)" fill="#fff"/>
      <path id="Path_54615" data-name="Path 54615" d="M-2608.476-276.318q0-3.109,0-6.218c0-.577.262-.841.835-.841h4.006a.727.727,0,0,1,.825.829q0,6.251,0,12.5a.729.729,0,0,1-.824.83h-4.028a.724.724,0,0,1-.813-.819Q-2608.477-273.176-2608.476-276.318Z" transform="translate(-77.052 -30.815)" fill="#fff"/>
      <path id="Path_54616" data-name="Path 54616" d="M-2694.027-242.627q0,1.7,0,3.408a.725.725,0,0,1-.813.819h-4.05a.72.72,0,0,1-.8-.808q0-3.441,0-6.882a.717.717,0,0,1,.8-.807h4.072a.717.717,0,0,1,.791.8Q-2694.025-244.364-2694.027-242.627Z" transform="translate(0 -61.629)" fill="#fff"/>
    </g>
  </g>
</svg>
