<svg xmlns="http://www.w3.org/2000/svg" width="67" height="67" viewBox="0 0 67 67">
  <g id="Group_1306" data-name="Group 1306" transform="translate(-170 -736)">
    <rect id="Rectangle_7159" data-name="Rectangle 7159" width="67" height="67" rx="10" transform="translate(170 736)" fill="#f3f3f3"/>
    <path id="Path_918" data-name="Path 918" d="M-486.623,189.552a5.474,5.474,0,0,1,.4-.87,2.171,2.171,0,0,1,1.92-.928c2.711.005,5.422,0,8.133.007a.763.763,0,0,0,.6-.248q5.107-5.112,10.226-10.213c.6-.594.9-.592,1.5.011l6.87,6.857c.563.562.562.881-.005,1.446-.694.691-1.389,1.381-2.156,2.142a19.378,19.378,0,0,1,2.05.014,2.115,2.115,0,0,0,1.925-.8c1.151-1.236,2.379-2.4,3.574-3.594.5-.5.5-.849.01-1.344-.779-.781-1.565-1.554-2.337-2.341a.375.375,0,0,0-.543-.088,3.6,3.6,0,0,1-5.222-2.468,3.4,3.4,0,0,1,.378-2.394.333.333,0,0,0-.061-.487c-.806-.787-1.6-1.589-2.4-2.382-.486-.483-.834-.471-1.347.04q-5.726,5.713-11.452,11.427a2.57,2.57,0,0,1-.378.328.67.67,0,0,1-.885-.086.674.674,0,0,1-.082-.884,2.185,2.185,0,0,1,.281-.325q5.749-5.741,11.5-11.484a3.422,3.422,0,0,1,1.329-.809H-462a4.136,4.136,0,0,1,1.725,1.231c.778.8,1.574,1.577,2.362,2.365.576.575.591.8.087,1.436a2.051,2.051,0,0,0-.466,1.467,2.051,2.051,0,0,0,1.323,1.853,2.077,2.077,0,0,0,2.221-.349c.549-.445.825-.424,1.331.081.806.8,1.6,1.615,2.419,2.409a4.138,4.138,0,0,1,1.235,1.72v.79a3.817,3.817,0,0,1-1.166,1.681c-.9.877-1.782,1.772-2.671,2.661-.088.088-.169.183-.3.329h1.892a2.282,2.282,0,0,1,1.491.525,2.713,2.713,0,0,1,.756,1.271v5.029a.9.9,0,0,1-.881.592,2.144,2.144,0,0,0-2,2.143,2.139,2.139,0,0,0,1.971,2.129,1.063,1.063,0,0,1,.906.525v5.1c-.605,1.474-1.094,1.8-2.721,1.8h-6.657q-12.523,0-25.046,0a2.526,2.526,0,0,1-1.59-.459,2.621,2.621,0,0,1-.843-1.34v-5.1a1.063,1.063,0,0,1,.906-.525,2.139,2.139,0,0,0,1.971-2.129,2.144,2.144,0,0,0-2-2.143.9.9,0,0,1-.881-.592Zm18.392,15.878q8.044,0,16.087,0c.684,0,.936-.252.937-.933,0-.958-.025-1.917.011-2.873.019-.522,0-.944-.654-1a.33.33,0,0,1-.1-.044,3.593,3.593,0,0,1-2.128-3.45,3.556,3.556,0,0,1,2.6-3.257.319.319,0,0,0,.274-.371c-.01-1.137,0-2.275-.006-3.413,0-.635-.262-.9-.9-.9q-16.088,0-32.175,0c-.638,0-.9.261-.9.9,0,.97.024,1.941-.011,2.909-.019.521,0,.945.654,1a.321.321,0,0,1,.1.044,3.6,3.6,0,0,1,2.127,3.451,3.552,3.552,0,0,1-2.6,3.257.321.321,0,0,0-.274.372c.01,1.09,0,2.179,0,3.269,0,.828.215,1.042,1.044,1.042Zm-5.442-17.684a.882.882,0,0,0,.1.01c2.435,0,4.871,0,7.306-.008a.693.693,0,0,0,.42-.209c.916-.9,1.819-1.809,2.728-2.713a1.9,1.9,0,0,1,.358-.3.7.7,0,0,1,1.037.468.819.819,0,0,1-.3.767q-.867.862-1.73,1.728c-.068.068-.126.148-.223.264.918,0,1.768.006,2.619-.007a.545.545,0,0,0,.337-.152c.872-.857,1.734-1.723,2.6-2.588a.317.317,0,0,0,.06-.085l-6.245-6.233Z" transform="translate(671.623 580.918)" stroke="#000" stroke-width="0.3"/>
    <path id="Path_919" data-name="Path 919" d="M-463.426,207.924a.748.748,0,0,1-.728-.7.729.729,0,0,1,.7-.722.714.714,0,0,1,.722.694A.731.731,0,0,1-463.426,207.924Z" transform="translate(657.886 558.651)" stroke="#000" stroke-width="0.3"/>
    <path id="Path_920" data-name="Path 920" d="M-447.345,235.337v-8.891h-20.4v8.891c.662,0,1.329,0,2,0a1.79,1.79,0,0,1,.461.047.647.647,0,0,1,.5.666.655.655,0,0,1-.493.672,1.248,1.248,0,0,1-.354.048c-.9,0-1.8.005-2.7,0-.605,0-.876-.274-.877-.884q0-5.01,0-10.02c0-.606.273-.876.884-.876q10.778,0,21.555,0c.609,0,.881.272.882.878q0,5.01,0,10.02c0,.607-.273.881-.879.882q-6.046,0-12.091,0c-.539,0-.854-.267-.86-.707s.314-.727.875-.728q5.523,0,11.047,0Z" transform="translate(660.977 547.346)" stroke="#000" stroke-width="0.3"/>
    <path id="Path_921" data-name="Path 921" d="M-451.5,242.741h6.8a2.507,2.507,0,0,1,.359.012.727.727,0,0,1,.643.706.728.728,0,0,1-.644.705,2.513,2.513,0,0,1-.359.012h-13.747c-.584,0-.93-.271-.931-.719s.347-.717.931-.717Q-454.973,242.739-451.5,242.741Z" transform="translate(654.965 536.494)" stroke="#000" stroke-width="0.3"/>
    <path id="Path_922" data-name="Path 922" d="M-451.227,252.35a.719.719,0,0,1-.714.7.736.736,0,0,1-.7-.723.736.736,0,0,1,.722-.7A.719.719,0,0,1-451.227,252.35Z" transform="translate(650.848 531.061)" stroke="#000" stroke-width="0.3"/>
    <path id="Path_923" data-name="Path 923" d="M-448.773,234.59a.717.717,0,0,1-.7.715.717.717,0,0,1-.7-.714.716.716,0,0,1,.7-.715A.716.716,0,0,1-448.773,234.59Z" transform="translate(649.342 541.913)" stroke="#000" stroke-width="0.3"/>
    <path id="Path_924" data-name="Path 924" d="M-430.435,234.624a.717.717,0,0,1-.734.682.716.716,0,0,1-.674-.742.717.717,0,0,1,.734-.682A.715.715,0,0,1-430.435,234.624Z" transform="translate(638.13 541.911)" stroke="#000" stroke-width="0.3"/>
    <path id="Path_925" data-name="Path 925" d="M-459.376,234.585a.74.74,0,0,1,.722-.7.74.74,0,0,1,.706.72.743.743,0,0,1-.722.7A.742.742,0,0,1-459.376,234.585Z" transform="translate(654.964 541.911)" stroke="#000" stroke-width="0.3"/>
    <path id="Path_926" data-name="Path 926" d="M-439.609,234.594a.744.744,0,0,1-.714.713.744.744,0,0,1-.714-.713.741.741,0,0,1,.714-.712A.741.741,0,0,1-439.609,234.594Z" transform="translate(643.751 541.911)" stroke="#000" stroke-width="0.3"/>
    <path id="Path_927" data-name="Path 927" d="M-421.27,234.6a.742.742,0,0,1-.719.708.743.743,0,0,1-.708-.719.741.741,0,0,1,.719-.707A.74.74,0,0,1-421.27,234.6Z" transform="translate(632.539 541.911)" stroke="#000" stroke-width="0.3"/>
    <path id="Path_928" data-name="Path 928" d="M-431.025,201.462a.707.707,0,0,1-.715.7.726.726,0,0,1-.7-.72.719.719,0,0,1,.724-.695A.7.7,0,0,1-431.025,201.462Z" transform="translate(638.496 562.171)" stroke="#000" stroke-width="0.3"/>
    <path id="Path_929" data-name="Path 929" d="M-437.508,207.933a.707.707,0,0,1-.715.7.726.726,0,0,1-.7-.72.718.718,0,0,1,.724-.695A.7.7,0,0,1-437.508,207.933Z" transform="translate(642.46 558.215)" stroke="#000" stroke-width="0.3"/>
  </g>
</svg>
