<svg xmlns="http://www.w3.org/2000/svg" width="11.495" height="17.25" viewBox="0 0 11.495 17.25">
  <g id="Group_43" data-name="Group 43" transform="translate(11.495 17.25) rotate(180)">
    <path id="Path_14" data-name="Path 14" d="M5.88,0a.818.818,0,0,1,.586.9q-.013,5.381,0,10.763v.247c.073-.067.12-.107.163-.151Q8.411,9.974,10.2,8.186a.782.782,0,0,1,.573-.276.715.715,0,0,1,.573,1.148,1.4,1.4,0,0,1-.147.162L6.325,14.091a.731.731,0,0,1-1.159,0Q2.724,11.65.281,9.209A.772.772,0,0,1,.009,8.52a.678.678,0,0,1,.449-.563.684.684,0,0,1,.711.116c.056.046.108.1.16.15Q3.092,9.985,4.852,11.75a.868.868,0,0,1,.106.171l.071-.047v-.193q0-5.415,0-10.83a.784.784,0,0,1,.3-.71A2.016,2.016,0,0,1,5.611,0Z" fill="#fff"/>
    <path id="Path_15" data-name="Path 15" d="M5.745,1.44H.776A.715.715,0,0,1,.005.8.707.707,0,0,1,.559.025,1.406,1.406,0,0,1,.827,0h9.837a.731.731,0,0,1,.817.613.709.709,0,0,1-.682.824c-.213.01-.427,0-.64,0Z" transform="translate(0 15.808)" fill="#fff"/>
  </g>
</svg>
