<svg xmlns="http://www.w3.org/2000/svg" width="35" height="35" viewBox="0 0 35 35">
  <g id="Group_22257" data-name="Group 22257" transform="translate(-654 -269)">
    <g id="Group_43" data-name="Group 43" transform="translate(666 279)">
      <path id="Path_14" data-name="Path 14" d="M-819.444,594.976a.743.743,0,0,0,.533-.819q-.012-4.891,0-9.781v-.224c.066.061.109.1.148.137q1.624,1.624,3.246,3.248a.711.711,0,0,0,.521.251.618.618,0,0,0,.582-.352.623.623,0,0,0-.061-.691,1.278,1.278,0,0,0-.134-.147l-4.427-4.427a.664.664,0,0,0-1.054,0q-2.219,2.219-4.439,4.437a.7.7,0,0,0-.248.626.616.616,0,0,0,.408.512.622.622,0,0,0,.647-.105c.051-.042.1-.089.145-.136q1.6-1.6,3.2-3.206a.789.789,0,0,0,.1-.156l.065.043v.175q0,4.921,0,9.843a.712.712,0,0,0,.272.645,1.83,1.83,0,0,0,.258.128Z" transform="translate(824.788 -579.299)" fill="#ff3a3a"/>
      <path id="Path_15" data-name="Path 15" d="M-819.558,956.586h-4.516a.65.65,0,0,0-.7.584.642.642,0,0,0,.5.7,1.28,1.28,0,0,0,.243.022h8.94a.665.665,0,0,0,.742-.557.645.645,0,0,0-.62-.749c-.193-.009-.388,0-.582,0Z" transform="translate(824.78 -956.584)" fill="#ff3a3a"/>
    </g>
    <g id="Ellipse_8762" data-name="Ellipse 8762" transform="translate(654 269)" fill="none" stroke="#ff3a3a" stroke-width="1">
      <circle cx="17.5" cy="17.5" r="17.5" stroke="none"/>
      <circle cx="17.5" cy="17.5" r="17" fill="none"/>
    </g>
  </g>
</svg>
