<svg xmlns="http://www.w3.org/2000/svg" xmlns:xlink="http://www.w3.org/1999/xlink" width="70.683" height="70.498" viewBox="0 0 70.683 70.498">
  <defs>
    <linearGradient id="linear-gradient" x1="0.5" x2="0.5" y2="0.741" gradientUnits="objectBoundingBox">
      <stop offset="0" stop-color="#5165f6"/>
      <stop offset="1" stop-color="#000b2d" stop-opacity="0"/>
    </linearGradient>
  </defs>
  <g id="Group_19984" data-name="Group 19984" transform="translate(-1139.124 -918)">
    <path id="Union_2" data-name="Union 2" d="M34.683,69.748a35.3,35.3,0,0,1-30.521-17.6,34.161,34.161,0,0,1,.011-35.317,35.266,35.266,0,1,1,30.51,52.917Zm0-68.811A33.617,33.617,0,0,0,5.63,17.684l-.008.014a32.474,32.474,0,0,0-.01,33.584l.008.014A33.578,33.578,0,1,0,34.683.938Z" transform="translate(1139.874 918.75)" fill="url(#linear-gradient)"/>
    <g id="Group_19897" data-name="Group 19897" transform="translate(1156.097 937.891)">
      <path id="Path_16" data-name="Path 16" d="M-1021.287-387.1a7.375,7.375,0,0,1-.654.842,16.384,16.384,0,0,1-8.019,4.512,22.693,22.693,0,0,1-2.535.285,1.141,1.141,0,0,1-1.053-.5c-.863-1.109-1.741-2.206-2.6-3.318a.5.5,0,0,0-.515-.218,28.3,28.3,0,0,1-6.113,0,.585.585,0,0,0-.6.258c-.834,1.086-1.7,2.149-2.533,3.234a1.339,1.339,0,0,1-1.177.553,13.774,13.774,0,0,1-7.7-2.583c-1.072-.737-2.028-1.647-3.027-2.488a1.09,1.09,0,0,1-.383-.968,46.857,46.857,0,0,1,3.359-14.963c.385-.889.883-1.729,1.349-2.581a1.337,1.337,0,0,1,.432-.468,20.938,20.938,0,0,1,7.026-3.046,13.565,13.565,0,0,1,1.5-.19,1.066,1.066,0,0,1,1.109.641c.52,1,1.05,2,1.559,3a.435.435,0,0,0,.469.276q1.657-.026,3.314,0a.435.435,0,0,0,.465-.282c.5-.984,1.026-1.955,1.525-2.94a1.159,1.159,0,0,1,1.219-.7,14.318,14.318,0,0,1,5.134,1.438c1.093.518,2.142,1.132,3.193,1.731a1.7,1.7,0,0,1,.572.576,27.721,27.721,0,0,1,3.1,7.718,54.292,54.292,0,0,1,1.528,9.078,2.718,2.718,0,0,0,.063.313Zm-22.743-17.47c-.289-.553-.576-1.051-.812-1.573a.49.49,0,0,0-.662-.321,18.866,18.866,0,0,0-6.067,2.572.847.847,0,0,0-.3.344c-.578,1.238-1.23,2.449-1.7,3.729a47.819,47.819,0,0,0-2.411,11.531.886.886,0,0,0,.382.919c.244.172.454.393.689.58a13.8,13.8,0,0,0,6.861,3.12.923.923,0,0,0,1.024-.418c.428-.618.921-1.19,1.412-1.815-.573-.144-1.095-.266-1.61-.407a19.01,19.01,0,0,1-5.394-2.343,1.094,1.094,0,0,1-.581-1.111,1.083,1.083,0,0,1,1.671-.766c.84.462,1.67.955,2.548,1.332a21.985,21.985,0,0,0,7.13,1.617,27.368,27.368,0,0,0,7.353-.418,18.31,18.31,0,0,0,6.539-2.534,1.04,1.04,0,0,1,1.3.1,1.077,1.077,0,0,1-.188,1.748,18.41,18.41,0,0,1-5.176,2.3c-.6.172-1.215.316-1.866.484l.96,1.223c.92,1.168.92,1.166,2.378.853a14.5,14.5,0,0,0,6.884-3.791.6.6,0,0,0,.137-.439,52.115,52.115,0,0,0-1.417-8.516,26.646,26.646,0,0,0-2.7-7,1.034,1.034,0,0,0-.366-.376c-.839-.466-1.675-.94-2.537-1.361a13.9,13.9,0,0,0-3.544-1.171c-.132-.025-.365-.011-.409.066-.339.589-.644,1.2-.972,1.826.2.038.355.07.507.095a23.189,23.189,0,0,1,5.953,1.761,1.1,1.1,0,0,1,.661,1.466,1.093,1.093,0,0,1-1.546.512,25.27,25.27,0,0,0-13.872-1.67,21,21,0,0,0-5.932,1.7,1.068,1.068,0,0,1-1.457-.522,1.068,1.068,0,0,1,.574-1.439c.524-.236,1.058-.455,1.6-.657A24.943,24.943,0,0,1-1044.03-404.569Z" transform="translate(1058.209 408.75)" fill="#5165f6" stroke="#000b2d" stroke-width="0.8"/>
      <path id="Path_17" data-name="Path 17" d="M-1020.523-389.581a4.417,4.417,0,0,1-1.293,3.22,3.61,3.61,0,0,1-5.318-.162,4.576,4.576,0,0,1-.2-5.778,3.668,3.668,0,0,1,6.341.779,13.145,13.145,0,0,1,.568,1.913Zm-5.586.049a2.383,2.383,0,0,0,.57,1.553,1.472,1.472,0,0,0,2.251.043,2.427,2.427,0,0,0-.022-3.218,1.468,1.468,0,0,0-2.2.037A2.375,2.375,0,0,0-1026.109-389.532Z" transform="translate(1047.966 403.633)" fill="#5165f6" stroke="#001601" stroke-width="0.8"/>
      <path id="Path_18" data-name="Path 18" d="M-1043.854-389.533a4.338,4.338,0,0,1,1.429-3.305,3.588,3.588,0,0,1,5.184.3,4.574,4.574,0,0,1-.066,6.08,3.663,3.663,0,0,1-6.084-1.094,13.146,13.146,0,0,1-.567-1.949Zm5.585.024a2.415,2.415,0,0,0-.56-1.573,1.473,1.473,0,0,0-2.2-.115,2.408,2.408,0,0,0,.055,3.369,1.451,1.451,0,0,0,1.967.008A2.29,2.29,0,0,0-1038.269-389.509Z" transform="translate(1053.334 403.638)" fill="#5165f6" stroke="#001601" stroke-width="0.8"/>
    </g>
  </g>
</svg>
