<svg xmlns="http://www.w3.org/2000/svg" width="15.246" height="18.108" viewBox="0 0 15.246 18.108">
  <g id="Group_20571" data-name="Group 20571" transform="translate(2207.555 379.591)">
    <path id="Path_31846" data-name="Path 31846" d="M-2195.754-379.591c.287.081.581.145.861.247a2.78,2.78,0,0,1,1.07.731c.227.239.458.476.68.719a3.233,3.233,0,0,1-.072,4.411q-3.935,3.955-7.886,7.893a2.6,2.6,0,0,1-1.442.641c-.981.188-1.956.405-2.94.583a1.805,1.805,0,0,1-2.008-1.327,2.484,2.484,0,0,1,.04-1.239c.2-.936.393-1.874.593-2.812a2.089,2.089,0,0,1,.567-1.058l7.831-7.85a3.129,3.129,0,0,1,1.8-.906.582.582,0,0,0,.1-.033Zm-9.995,13.436a.907.907,0,0,0,.1,0c1.026-.174,2.053-.344,3.077-.525a.572.572,0,0,0,.284-.147c.591-.583,1.175-1.174,1.761-1.763q2.981-2.992,5.96-5.988a1.408,1.408,0,0,0,0-2.152c-.208-.209-.415-.417-.625-.624a1.438,1.438,0,0,0-2.033,0q-3.892,3.894-7.776,7.8a.5.5,0,0,0-.122.243c-.119.569-.23,1.14-.342,1.711C-2205.562-367.129-2205.653-366.65-2205.749-366.155Z" transform="translate(0 0)" fill="#616188"/>
    <path id="Path_31847" data-name="Path 31847" d="M-2199.987-365.08q3.316,0,6.63,0a.89.89,0,0,1,.924.709.865.865,0,0,1-.833,1.025c-.053,0-.106,0-.159,0h-13.188a.866.866,0,0,1-.882-.6.85.85,0,0,1,.861-1.141C-2204.417-365.074-2202.2-365.08-2199.987-365.08Z" transform="translate(0.002 1.862)" fill="#616188"/>
  </g>
</svg>
