<svg xmlns="http://www.w3.org/2000/svg" width="129.423" height="129.428" viewBox="0 0 129.423 129.428">
  <g id="Group_20548" data-name="Group 20548" opacity="0.2">
    <g id="Group_20293" data-name="Group 20293" transform="translate(0 0)">
      <path id="Path_22987" data-name="Path 22987" d="M180.511,166.354a44.623,44.623,0,0,1-63.115,0l-50.081-50.12a4.461,4.461,0,0,1,3.161-7.613H81.263a4.463,4.463,0,0,0,4.067-6.3L64.566,56.314a4.463,4.463,0,0,1,5.9-5.9l46,20.77a4.462,4.462,0,0,0,6.3-4.067v-10.8a4.461,4.461,0,0,1,7.614-3.161c18.919,18.91,49.8,49.76,50.128,50.085A44.64,44.64,0,0,1,180.511,166.354Z" transform="translate(-64.156 -50)" fill="#fff"/>
      <g id="Group_20292" data-name="Group 20292" transform="translate(50.299 50.302)">
        <path id="Path_22988" data-name="Path 22988" d="M165.04,150.883A43.746,43.746,0,0,0,177.8,117.738a5.111,5.111,0,0,0-2.333-4.06,34.515,34.515,0,0,0-47.634,47.655,5.11,5.11,0,0,0,4.067,2.331A43.983,43.983,0,0,0,165.04,150.883Z" transform="translate(-122.449 -108.298)" fill="#ff296d"/>
        <path id="Path_22989" data-name="Path 22989" d="M188.614,126.84a.862.862,0,0,0-1.581.393,50.714,50.714,0,0,1-45.672,45.641.862.862,0,0,0-.393,1.581,34.519,34.519,0,0,0,47.646-47.615Z" transform="translate(-124.935 -110.787)" fill="#ff296d"/>
      </g>
    </g>
    <path id="Path_22990" data-name="Path 22990" d="M197.453,50l1.638,6.875a5.613,5.613,0,0,0,4.156,4.156l6.875,1.638-6.875,1.639a5.611,5.611,0,0,0-4.156,4.156l-1.638,6.875-1.639-6.875a5.609,5.609,0,0,0-4.156-4.156l-6.875-1.639,6.875-1.638a5.61,5.61,0,0,0,4.156-4.156Z" transform="translate(-80.7 -50)" fill="#fff"/>
  </g>
</svg>
