<svg id="Group_20559" data-name="Group 20559" xmlns="http://www.w3.org/2000/svg" width="26.621" height="26.577" viewBox="0 0 26.621 26.577">
  <path id="Path_31834" data-name="Path 31834" d="M13,0A13,13,0,1,1,0,13,13,13,0,0,1,13,0Z" transform="translate(0.621 0.577)" fill="#1e59e2"/>
  <path id="Path_31835" data-name="Path 31835" d="M13,0c7.18,0,12.536,5.82,12.536,13S20.18,25.971,13,25.971A12.985,12.985,0,1,1,13,0Z" transform="translate(0.621 0.577)" fill="#fff"/>
  <path id="Path_31833" data-name="Path 31833" d="M-595.4,180.408v.256a.067.067,0,0,0,0,.1v.256c-.066.358-.048.723-.085,1.083a10.682,10.682,0,0,1-.636,2.948,13.371,13.371,0,0,1-2.172,3.813,14.453,14.453,0,0,1-3.812,3.094,13.338,13.338,0,0,1-3.565,1.216,4.431,4.431,0,0,1-.607.08.213.213,0,0,1-.255-.217,2.548,2.548,0,0,1-.013-.332c0-2.73-.035-5.757-.033-8.488,0-.588.017-.6.6-.606.7,0,1.4,0,2.1,0,.331,0,.373-.044.427-.373.153-.934.29-1.87.435-2.806.046-.3-.008-.362-.322-.364-.862,0-1.723,0-2.585,0-.119,0-.239,0-.358-.009-.183-.011-.291-.1-.29-.288a20.994,20.994,0,0,1,.044-2.76,1.862,1.862,0,0,1,1.7-1.645,14.209,14.209,0,0,1,1.609-.047c.383-.009.419-.04.42-.431,0-.734,0-1.468,0-2.2,0-.324-.033-.378-.351-.419a10.351,10.351,0,0,0-3.988-.006,4.129,4.129,0,0,0-3.139,3.264,6.155,6.155,0,0,0-.163,1.522c.009.828.005,1.655,0,2.483,0,.5-.038.534-.546.536-.794,0-1.587,0-2.38,0-.354,0-.4.046-.4.4q0,1.369,0,2.739c0,.364.043.4.421.4.8,0,1.6,0,2.406,0,.451,0,.5.048.5.506q0,4.2,0,8.4c0,.068,0,.136-.009.2-.017.175-.077.331-.266.318a7.419,7.419,0,0,1-1.625-.437,12.84,12.84,0,0,1-4.523-2.4,13.215,13.215,0,0,1-3.433-4.247,11.807,11.807,0,0,1-1.243-3.8,19.378,19.378,0,0,1-.086-3.112,10.633,10.633,0,0,1,.3-2.428,13.167,13.167,0,0,1,3.189-5.727,13.136,13.136,0,0,1,7.11-3.932,7.466,7.466,0,0,1,1.117-.106,21.765,21.765,0,0,1,3.649.073,11.055,11.055,0,0,1,3.058.9,12.628,12.628,0,0,1,3.356,2.131,13.2,13.2,0,0,1,2.964,3.688,13.182,13.182,0,0,1,1.31,3.538,12.587,12.587,0,0,1,.139,1.518c0,.058-.016.12.025.172v.2a.067.067,0,0,0,0,.1v.256a.4.4,0,0,0,0,.307v.358A.4.4,0,0,0-595.4,180.408Z" transform="translate(621.637 -166.808)" fill="#1e59e2"/>
</svg>
