<svg id="Group_20557" data-name="Group 20557" xmlns="http://www.w3.org/2000/svg" width="25.448" height="25.968" viewBox="0 0 25.448 25.968">
  <g id="Group_20553" data-name="Group 20553" transform="translate(1.383)">
    <path id="Path_31829" data-name="Path 31829" d="M222.45,327.142a13.13,13.13,0,0,1,8.746.077,12.568,12.568,0,0,1,4.178,2.589c-.4.44-.844.849-1.262,1.277q-1.2,1.193-2.389,2.387a7.038,7.038,0,0,0-2.8-1.645,7.628,7.628,0,0,0-7.69,2,8.056,8.056,0,0,0-1.885,3.061l-4.256-3.3A13.042,13.042,0,0,1,222.45,327.142Z" transform="translate(-215.094 -326.43)" fill="#e22b26"/>
  </g>
  <g id="Group_20554" data-name="Group 20554" transform="translate(0 7.155)">
    <path id="Path_31830" data-name="Path 31830" d="M205.276,381.777a12.923,12.923,0,0,1,1.128-3.263l4.256,3.3a7.865,7.865,0,0,0,0,5.056q-2.127,1.651-4.254,3.3A13,13,0,0,1,205.276,381.777Z" transform="translate(-205.02 -378.514)" fill="#fdac00"/>
  </g>
  <g id="Group_20555" data-name="Group 20555" transform="translate(12.983 10.551)">
    <path id="Path_31831" data-name="Path 31831" d="M299.53,403.229q6.109,0,12.219,0a15.256,15.256,0,0,1-.331,6.893,11.792,11.792,0,0,1-3.285,5.39c-1.373-1.071-2.752-2.135-4.126-3.206a6.1,6.1,0,0,0,2.6-4.01q-3.537,0-7.076,0C299.528,406.607,299.53,404.918,299.53,403.229Z" transform="translate(-299.529 -403.228)" fill="#356bb3"/>
  </g>
  <g id="Group_20556" data-name="Group 20556" transform="translate(1.383 15.513)">
    <path id="Path_31832" data-name="Path 31832" d="M215.083,442.653q2.129-1.648,4.254-3.3a8.068,8.068,0,0,0,2.976,3.987,7.626,7.626,0,0,0,2.891,1.248,8.473,8.473,0,0,0,3.1.01,7.421,7.421,0,0,0,2.859-1.129c1.373,1.071,2.752,2.136,4.126,3.206a11.727,11.727,0,0,1-5.316,2.766,13.877,13.877,0,0,1-6.643-.072,12.925,12.925,0,0,1-4.718-2.379A13.082,13.082,0,0,1,215.083,442.653Z" transform="translate(-215.083 -439.352)" fill="#3e993d"/>
  </g>
</svg>
