<svg xmlns="http://www.w3.org/2000/svg" width="21.993" height="21.993" viewBox="0 0 21.993 21.993">
  <g id="Group_20834" data-name="Group 20834" transform="translate(-556.007 -5133)">
    <rect id="Rectangle_8153" data-name="Rectangle 8153" width="19" height="19" transform="translate(558 5135)" fill="#fff"/>
    <g id="Group_20833" data-name="Group 20833" transform="translate(924.716 5873.501)">
      <path id="Path_49333" data-name="Path 49333" d="M-346.716-738.567v18.142a.725.725,0,0,0-.053.158,1.893,1.893,0,0,1-.988,1.5,2.174,2.174,0,0,1-1.135.262q-8.822,0-17.646,0a2.173,2.173,0,0,1-1.371-.406,2.069,2.069,0,0,1-.8-1.765q0-8.619,0-17.237c0-.264.018-.529.036-.792a1.944,1.944,0,0,1,1.55-1.727c.109-.024.22-.044.33-.065h18.141a.857.857,0,0,0,.178.054,1.965,1.965,0,0,1,1.7,1.574C-346.761-738.771-346.736-738.669-346.716-738.567Zm-9.915,7.449c0-.227,0-.447,0-.666a.58.58,0,0,0-.643-.652h-2.364a.593.593,0,0,0-.677.667q0,5.1,0,10.209a.607.607,0,0,0,.677.675q1.162,0,2.322,0a.6.6,0,0,0,.686-.682q0-2.6,0-5.2a3.707,3.707,0,0,1,.37-1.637,1.761,1.761,0,0,1,1.838-1.03,1.606,1.606,0,0,1,1.5,1.318,5.421,5.421,0,0,1,.163,1.227c.017,1.762.007,3.525.007,5.287,0,.523.2.717.73.717q1.171,0,2.342,0a.612.612,0,0,0,.693-.684c-.008-2.085-.01-4.169-.041-6.253a6.831,6.831,0,0,0-.462-2.452,3.4,3.4,0,0,0-2.048-2.068,5.463,5.463,0,0,0-2.626-.2,3.4,3.4,0,0,0-2.411,1.406C-356.585-731.13-356.6-731.129-356.631-731.118Zm-8.931,4.458q0,2.513,0,5.027c0,.531.221.749.76.749h2.126c.572,0,.8-.221.8-.789q0-4.985,0-9.968c0-.051,0-.1,0-.15a.622.622,0,0,0-.675-.644q-1.149,0-2.3,0a.616.616,0,0,0-.708.705Q-365.563-729.195-365.562-726.66Zm4.2-9.065a2.383,2.383,0,0,0-2.372-2.381,2.373,2.373,0,0,0-2.366,2.367,2.36,2.36,0,0,0,2.374,2.38A2.371,2.371,0,0,0-361.359-735.725Z" fill="#1086c5"/>
    </g>
  </g>
</svg>
