<svg xmlns="http://www.w3.org/2000/svg" xmlns:xlink="http://www.w3.org/1999/xlink" width="67.513" height="67.513" viewBox="0 0 67.513 67.513">
  <defs>
    <linearGradient id="linear-gradient" x1="0.5" x2="0.5" y2="0.731" gradientUnits="objectBoundingBox">
      <stop offset="0" stop-color="#fff"/>
      <stop offset="1" stop-color="#000b2e" stop-opacity="0"/>
    </linearGradient>
  </defs>
  <g id="Group_19983" data-name="Group 19983" transform="translate(-1033.072 -919.493)">
    <path id="Ellipse_8518" data-name="Ellipse 8518" d="M33.756,1.688A32.078,32.078,0,0,0,21.274,63.306a32.077,32.077,0,0,0,24.964-59.1A31.866,31.866,0,0,0,33.756,1.688m0-1.688A33.756,33.756,0,1,1,0,33.756,33.756,33.756,0,0,1,33.756,0Z" transform="translate(1033.072 919.493)" fill="url(#linear-gradient)"/>
    <g id="Group_19898" data-name="Group 19898" transform="translate(1052.997 943.625)">
      <path id="Path_19" data-name="Path 19" d="M-1528.511-720.39a2.889,2.889,0,0,1-.349.667c-.6.612-1.253,1.181-1.847,1.8a1.2,1.2,0,0,0-.318.746q-.028,7.566,0,15.132a1.213,1.213,0,0,0,.316.747c.574.62,1.2,1.187,1.79,1.8a2.936,2.936,0,0,1,.347.661h-10.841a2.642,2.642,0,0,1,.333-.667c.6-.617,1.243-1.191,1.839-1.812a1.076,1.076,0,0,0,.3-.663c.018-3.957.013-7.914.012-11.87a3.187,3.187,0,0,0-.045-.323c-.112.254-.182.4-.24.542q-2.818,7.153-5.633,14.308c-.093.235-.133.474-.5.463a.67.67,0,0,1-.717-.44q-3.274-7.207-6.587-14.4c-.068-.148-.143-.293-.272-.557-.019.25-.038.376-.038.5-.006,3.307-.023,6.614,0,9.921a1.907,1.907,0,0,0,.418,1.057c.843,1.084,1.742,2.124,2.6,3.194a3.138,3.138,0,0,1,.3.677h-8.246a2.923,2.923,0,0,1,.293-.68c.86-1.071,1.759-2.112,2.6-3.2a1.821,1.821,0,0,0,.4-1.017c.022-4.017,0-8.034.006-12.051a1.6,1.6,0,0,0-.4-1.112c-.779-.9-1.536-1.825-2.286-2.753a3.283,3.283,0,0,1-.3-.682h.6c2.3,0,4.592.008,6.887-.008a.648.648,0,0,1,.707.444q2.793,6.184,5.621,12.352c.068.149.143.3.259.532.092-.214.156-.356.214-.5q2.484-6.192,4.958-12.387a.587.587,0,0,1,.655-.442c2.19.019,4.38.01,6.571.01Z" transform="translate(1555.882 720.399)" fill="#fff"/>
    </g>
  </g>
</svg>
