<svg xmlns="http://www.w3.org/2000/svg" xmlns:xlink="http://www.w3.org/1999/xlink" width="67.513" height="67.513" viewBox="0 0 67.513 67.513">
  <defs>
    <linearGradient id="linear-gradient" x1="0.5" x2="0.5" y2="0.731" gradientUnits="objectBoundingBox">
      <stop offset="0" stop-color="#29a9eb"/>
      <stop offset="1" stop-color="#000d2d" stop-opacity="0"/>
    </linearGradient>
  </defs>
  <g id="Group_20041" data-name="Group 20041" transform="translate(-926.177 -919.493)">
    <g id="Group_19982" data-name="Group 19982">
      <path id="Ellipse_8517" data-name="Ellipse 8517" d="M33.756,1.688A32.078,32.078,0,0,0,21.274,63.306a32.077,32.077,0,0,0,24.964-59.1A31.866,31.866,0,0,0,33.756,1.688m0-1.688A33.756,33.756,0,1,1,0,33.756,33.756,33.756,0,0,1,33.756,0Z" transform="translate(926.177 919.493)" fill="url(#linear-gradient)"/>
      <g id="Group_19896" data-name="Group 19896" transform="translate(946.284 941.874)">
        <path id="Path_15" data-name="Path 15" d="M-205.968-47.084c-.164.734-.331,1.467-.488,2.2q-1.793,8.391-3.58,16.78c-.088.409-.164.822-.27,1.225-.352,1.331-1.323,1.67-2.44.853q-2.864-2.1-5.726-4.194c-.558-.409-.558-.411-1.05.059q-1.393,1.331-2.784,2.661a1.505,1.505,0,0,1-1.115.457c.026-.393.049-.778.077-1.163.121-1.706.239-3.414.373-5.121a.637.637,0,0,1,.2-.383q5.785-5.21,11.581-10.408a.447.447,0,0,0,.1-.092c.075-.133.141-.272.211-.408a1.519,1.519,0,0,0-.5-.087,1.464,1.464,0,0,0-.516.234q-7.187,4.49-14.366,8.992a.725.725,0,0,1-.675.093c-1.985-.632-3.974-1.24-5.959-1.868a2.724,2.724,0,0,1-.752-.37.581.581,0,0,1-.079-.978,3.057,3.057,0,0,1,.925-.606c1.867-.74,3.747-1.451,5.622-2.168q9.626-3.687,19.254-7.366a2.167,2.167,0,0,1,.576-.149,1.131,1.131,0,0,1,1.325.94c.013.051.036.1.054.152Z" transform="translate(233.956 48.895)" fill="#28a8e9"/>
      </g>
    </g>
  </g>
</svg>
