<svg xmlns="http://www.w3.org/2000/svg" xmlns:xlink="http://www.w3.org/1999/xlink" width="68.638" height="67.513" viewBox="0 0 68.638 67.513">
  <defs>
    <linearGradient id="linear-gradient" x1="0.5" x2="0.5" y2="0.664" gradientUnits="objectBoundingBox">
      <stop offset="0" stop-color="#12a3d4"/>
      <stop offset="1" stop-color="#001532" stop-opacity="0"/>
    </linearGradient>
  </defs>
  <g id="Group_19980" data-name="Group 19980" transform="translate(-711.261 -919.493)">
    <path id="Ellipse_8510" data-name="Ellipse 8510" d="M34.319,1.688a32.916,32.916,0,0,0-12.71,2.523A32.562,32.562,0,0,0,11.235,11.09,31.939,31.939,0,0,0,4.248,21.284a31.668,31.668,0,0,0,0,24.946,31.939,31.939,0,0,0,6.988,10.193A32.562,32.562,0,0,0,21.609,63.3a33.273,33.273,0,0,0,25.42,0A32.562,32.562,0,0,0,57.4,56.423a31.939,31.939,0,0,0,6.988-10.193,31.668,31.668,0,0,0,0-24.946A31.939,31.939,0,0,0,57.4,11.09,32.562,32.562,0,0,0,47.029,4.211a32.916,32.916,0,0,0-12.71-2.523m0-1.688C53.273,0,68.638,15.113,68.638,33.756S53.273,67.513,34.319,67.513,0,52.4,0,33.756,15.365,0,34.319,0Z" transform="translate(711.261 919.493)" fill="url(#linear-gradient)"/>
    <path id="Path_8" data-name="Path 8" d="M142.178,64.7a6.365,6.365,0,0,1-5.906-4.407,6.307,6.307,0,0,0,2.72-.081.608.608,0,0,0,.091-.042,6.343,6.343,0,0,1-4.123-2.912,6.174,6.174,0,0,1-.93-3.376,6.249,6.249,0,0,0,2.825.769,6.369,6.369,0,0,1-2.612-3.851,6.282,6.282,0,0,1,.681-4.6,18.161,18.161,0,0,0,13.092,6.633c-.037-.251-.076-.473-.1-.695a6.348,6.348,0,0,1,10.79-5.251.321.321,0,0,0,.338.1,12.826,12.826,0,0,0,3.692-1.42.651.651,0,0,1,.084-.043c.005-.005.015,0,.042,0a6.494,6.494,0,0,1-2.718,3.455,12.179,12.179,0,0,0,3.534-.952l.026.029c-.243.319-.477.643-.729.952a12.418,12.418,0,0,1-2.309,2.193.217.217,0,0,0-.1.2,17.585,17.585,0,0,1-.118,2.819,18.706,18.706,0,0,1-1.636,5.652,18.274,18.274,0,0,1-3.431,5,16.967,16.967,0,0,1-8.724,4.862,19.036,19.036,0,0,1-3.536.42,17.927,17.927,0,0,1-10.159-2.726c-.039-.023-.079-.051-.149-.1a12.835,12.835,0,0,0,6.351-.876A12.572,12.572,0,0,0,142.178,64.7Z" transform="translate(597.052 895.471)" fill="#1ba5d4"/>
  </g>
</svg>
