<svg xmlns="http://www.w3.org/2000/svg" width="27.233" height="24.794" viewBox="0 0 27.233 24.794">
  <g id="Group_20567" data-name="Group 20567" transform="translate(1903.155 259.004)">
    <path id="Path_31842" data-name="Path 31842" d="M-1889.74-234.46q-4.668,0-9.334,0a3.612,3.612,0,0,1-3.562-2.326,3.92,3.92,0,0,1-.256-1.327q-.025-8.494-.008-16.987a3.644,3.644,0,0,1,3.741-3.649c2.674-.009,5.35,0,8.025,0q5.578,0,11.156,0a1.235,1.235,0,0,1,1.336.914,1.206,1.206,0,0,1-1.005,1.5,4.131,4.131,0,0,1-.483.02q-9.434,0-18.867,0a2.263,2.263,0,0,0-.645.074,1.189,1.189,0,0,0-.814,1.257,1.23,1.23,0,0,0,1.167,1.087c.1.007.208,0,.313,0,6.337,0,12.673.009,19.01-.011a1.318,1.318,0,0,1,1.371,1.382c-.039,1.545-.009,3.092-.015,4.638a.333.333,0,0,0,.235.377,3.558,3.558,0,0,1,2.2,3.33,3.519,3.519,0,0,1-2.185,3.312.366.366,0,0,0-.253.4c.009,1.546,0,3.092,0,4.637a1.225,1.225,0,0,1-1.373,1.364Q-1884.86-234.458-1889.74-234.46Zm8.683-6.064h-.339c-1.063,0-2.125,0-3.187,0a4.052,4.052,0,0,1-.819-.079,3.645,3.645,0,0,1-2.873-4.2,3.606,3.606,0,0,1,3.269-2.992c1.2-.053,2.408-.024,3.614-.031.11,0,.218,0,.324,0v-3.627h-.391q-8.282,0-16.563,0a6.623,6.623,0,0,1-2.441-.229v13.373a1.25,1.25,0,0,0,1.42,1.41h17.988Zm-1.208-2.439c.8,0,1.593,0,2.389,0a1.2,1.2,0,0,0,.994-.461,1.143,1.143,0,0,0,.145-1.278,1.2,1.2,0,0,0-1.182-.686c-1.554,0-3.108,0-4.662.006a1.611,1.611,0,0,0-.607.117,1.176,1.176,0,0,0-.678,1.305,1.2,1.2,0,0,0,1.211.994C-1883.856-242.956-1883.06-242.963-1882.265-242.963Z" transform="translate(0)" fill="#aeaedc" stroke="#01012a" stroke-width="0.5"/>
  </g>
</svg>
