<svg xmlns="http://www.w3.org/2000/svg" width="174.991" height="55.648" viewBox="0 0 174.991 55.648">
  <g id="Group_22143" data-name="Group 22143" transform="translate(-100.722 -37.99)">
    <g id="Group_20547" data-name="Group 20547" transform="translate(100.722 37.99)">
      <g id="Group_20291" data-name="Group 20291" transform="translate(67.507 31.643)">
        <path id="Path_22981" data-name="Path 22981" d="M313.744,137.974c-.545-.691-1.044-1.324-1.691-2.148a.966.966,0,0,0-.771-.355h-5.868a1.4,1.4,0,0,0-.868.328c-1,.83-1.777,1.466-2.624,2.164l-1.413,1.165a1.446,1.446,0,0,0-.495.791l-1.22,5.738a1.011,1.011,0,0,0,.175.839c.992,1.255,1.634,2.07,2.621,3.329a.971.971,0,0,0,.774.355h5.869a1.392,1.392,0,0,0,.865-.328c1.523-1.258,2.512-2.074,4.037-3.329a1.446,1.446,0,0,0,.494-.791l1.22-5.738a1.007,1.007,0,0,0-.175-.839Zm-1.88,1.584-1.373,6.46a1.508,1.508,0,0,1-1.4,1.157h-6.463a.864.864,0,0,1-.69-.3.909.909,0,0,1-.157-.778l1.373-6.46a1.508,1.508,0,0,1,1.4-1.157h6.463a.863.863,0,0,1,.69.3A.91.91,0,0,1,311.864,139.558Z" transform="translate(-279.237 -135.406)" fill="#ff2a6d"/>
        <path id="Path_22982" data-name="Path 22982" d="M506.74,139.059c-.632-.8-1.125-1.429-1.67-2.121l-.8-1.014a1.235,1.235,0,0,0-.985-.453H493.1l-3.126,14.71h10.261a1.77,1.77,0,0,0,1.115-.423l3.807-3.14a1.837,1.837,0,0,0,.639-1.021l1.162-5.468A1.29,1.29,0,0,0,506.74,139.059Zm-3.012,1.8-.82,3.86a3.206,3.206,0,0,1-2.977,2.458h-6.238l1.849-8.7h6.315a1.9,1.9,0,0,1,1.52.674A2,2,0,0,1,503.727,140.857Z" transform="translate(-399.508 -135.406)" fill="#ff2a6d"/>
        <path id="Path_22983" data-name="Path 22983" d="M259.971,136.245a.791.791,0,0,0-.628-.286H249.17l-3.05,14.348h10.173a1.215,1.215,0,0,0,.75-.286l4.151-3.423a.827.827,0,0,0,.289-.458l.273-1.288a.512.512,0,0,0-.236-.572l-1.011-.566c-.428-.237-.282-.923.247-1.164.453-.2.927-.416,1.247-.559a.857.857,0,0,0,.485-.582l.272-1.278a.55.55,0,0,0-.093-.462Zm-1.5,9.812a2.033,2.033,0,0,1-.713,1.135,1.96,1.96,0,0,1-1.235.472h-7.13l.682-3.209h7.13A1.26,1.26,0,0,1,258.468,146.057Zm1.244-5.852a2.031,2.031,0,0,1-.713,1.134,1.962,1.962,0,0,1-1.235.472h-7.13l.682-3.209h7.13A1.259,1.259,0,0,1,259.711,140.2Z" transform="translate(-246.12 -135.713)" fill="#ff2a6d"/>
        <path id="Path_22984" data-name="Path 22984" d="M361.722,145.6a1.906,1.906,0,0,1-1.77,1.463,1.1,1.1,0,0,1-.893-.4,1.171,1.171,0,0,1-.192-.985l.98-4.611h-3.013l-.964,4.536a1.907,1.907,0,0,1-1.77,1.463,1.1,1.1,0,0,1-.893-.4,1.161,1.161,0,0,1-.194-.984l2.207-10.382h-3.012l-2.221,10.45a.731.731,0,0,0,.128.609l2.772,3.521a.7.7,0,0,0,.56.259h1.284a1.008,1.008,0,0,0,.8-.433l.8-1.13a.625.625,0,0,1,.587-.277.3.3,0,0,1,.255.223l.322,1.128a.682.682,0,0,0,.679.491h1.278a.978.978,0,0,0,.616-.231l4.269-3.521a1.008,1.008,0,0,0,.35-.562l2.237-10.526h-3.011Z" transform="translate(-311.441 -135.295)" fill="#ff2a6d"/>
        <path id="Path_22985" data-name="Path 22985" d="M445.822,135.8l-3.921,3.233a1.866,1.866,0,0,0-.639,1.022l-1.163,5.468a1.285,1.285,0,0,0,.221,1.069l2.547,3.235a.966.966,0,0,0,.771.355h10.319l.639-3.005H444.28a1.165,1.165,0,0,1-.93-.411,1.225,1.225,0,0,1-.213-1.048,2,2,0,0,1,1.857-1.534h4.469l.638-3H445.41a1.049,1.049,0,0,1-.838-.369,1.1,1.1,0,0,1-.191-.944,1.81,1.81,0,0,1,1.681-1.389h10.385l.638-3H446.689A1.377,1.377,0,0,0,445.822,135.8Z" transform="translate(-368.115 -135.406)" fill="#ff2a6d"/>
        <path id="Path_22986" data-name="Path 22986" d="M407.1,135.471h-3.078l-2.194,10.32a.734.734,0,0,0,.129.611c.681.863,1.193,1.514,1.754,2.227l1.014,1.288a.711.711,0,0,0,.566.263H412.3l.639-3.005h-8.326Z" transform="translate(-344.048 -135.406)" fill="#ff2a6d"/>
      </g>
      <g id="Group_20294" data-name="Group 20294" transform="translate(0)">
        <g id="Group_20293" data-name="Group 20293" transform="translate(0 0)">
          <path id="Path_22987" data-name="Path 22987" d="M114.184,100.027a19.186,19.186,0,0,1-27.137,0L65.514,78.478A1.918,1.918,0,0,1,66.874,75.2h4.637A1.919,1.919,0,0,0,73.26,72.5L64.332,52.715a1.919,1.919,0,0,1,2.539-2.538l19.778,8.93a1.919,1.919,0,0,0,2.708-1.749V52.715a1.918,1.918,0,0,1,3.274-1.359c8.134,8.131,21.413,21.395,21.553,21.534A19.193,19.193,0,0,1,114.184,100.027Z" transform="translate(-64.156 -50)" fill="#fff"/>
          <g id="Group_20292" data-name="Group 20292" transform="translate(21.626 21.628)">
            <path id="Path_22988" data-name="Path 22988" d="M140.762,126.608a18.809,18.809,0,0,0,5.488-14.251,2.2,2.2,0,0,0-1-1.746,14.84,14.84,0,0,0-20.48,20.49,2.2,2.2,0,0,0,1.748,1A18.911,18.911,0,0,0,140.762,126.608Z" transform="translate(-122.449 -108.298)" fill="#ff296d"/>
            <path id="Path_22989" data-name="Path 22989" d="M161.229,126.615a.37.37,0,0,0-.68.169,21.8,21.8,0,0,1-19.637,19.624.371.371,0,0,0-.169.68,14.842,14.842,0,0,0,20.486-20.472Z" transform="translate(-133.85 -119.713)" fill="#ff296d"/>
          </g>
        </g>
        <path id="Path_22990" data-name="Path 22990" d="M190.231,50l.7,2.956a2.413,2.413,0,0,0,1.787,1.787l2.956.7-2.956.7a2.413,2.413,0,0,0-1.787,1.787l-.7,2.956-.7-2.956a2.411,2.411,0,0,0-1.787-1.787l-2.956-.7,2.956-.7a2.412,2.412,0,0,0,1.787-1.787Z" transform="translate(-140.032 -50)" fill="#fff"/>
      </g>
    </g>
  </g>
</svg>
