<svg id="Group_21164" data-name="Group 21164" xmlns="http://www.w3.org/2000/svg" xmlns:xlink="http://www.w3.org/1999/xlink" width="43.327" height="43.327" viewBox="0 0 43.327 43.327">
  <defs>
    <linearGradient id="linear-gradient" x1="0.5" x2="0.5" y2="0.731" gradientUnits="objectBoundingBox">
      <stop offset="0" stop-color="#fff"/>
      <stop offset="1" stop-color="#000b2e" stop-opacity="0"/>
    </linearGradient>
  </defs>
  <g id="Group_19983" data-name="Group 19983">
    <path id="Ellipse_8518" data-name="Ellipse 8518" d="M21.664,1.083a20.586,20.586,0,0,0-8.011,39.544A20.586,20.586,0,0,0,29.674,2.7a20.451,20.451,0,0,0-8.011-1.617m0-1.083A21.664,21.664,0,1,1,0,21.664,21.664,21.664,0,0,1,21.664,0Z" fill="url(#linear-gradient)"/>
    <g id="Group_19898" data-name="Group 19898" transform="translate(12.787 15.487)">
      <path id="Path_19" data-name="Path 19" d="M-1538.316-720.393a1.865,1.865,0,0,1-.224.428c-.388.393-.8.758-1.185,1.157a.768.768,0,0,0-.2.479q-.018,4.855,0,9.711a.779.779,0,0,0,.2.479c.369.4.773.762,1.149,1.153a1.886,1.886,0,0,1,.223.424h-6.958a1.7,1.7,0,0,1,.214-.428c.385-.4.8-.765,1.18-1.163a.691.691,0,0,0,.191-.426c.012-2.539.009-5.079.008-7.618a2.057,2.057,0,0,0-.029-.207c-.072.163-.117.254-.154.348q-1.808,4.591-3.615,9.182c-.059.151-.086.3-.322.3a.43.43,0,0,1-.46-.283q-2.1-4.625-4.228-9.239c-.043-.1-.092-.188-.175-.357-.012.16-.024.242-.024.323,0,2.122-.015,4.245,0,6.367a1.224,1.224,0,0,0,.269.679c.541.7,1.118,1.363,1.672,2.05a2.012,2.012,0,0,1,.194.435h-5.292a1.878,1.878,0,0,1,.188-.436c.552-.687,1.129-1.356,1.671-2.051a1.17,1.17,0,0,0,.257-.653c.014-2.578,0-5.156,0-7.734a1.023,1.023,0,0,0-.258-.714c-.5-.58-.986-1.171-1.467-1.767a2.1,2.1,0,0,1-.195-.438h.385c1.473,0,2.947.005,4.42-.005a.416.416,0,0,1,.454.285q1.793,3.969,3.607,7.927c.044.1.092.19.166.341.059-.137.1-.228.137-.321q1.594-3.974,3.182-7.949a.377.377,0,0,1,.42-.284c1.405.012,2.811.006,4.217.006Z" transform="translate(1555.882 720.399)" fill="#fff"/>
    </g>
  </g>
</svg>
