<svg id="Group_21162" data-name="Group 21162" xmlns="http://www.w3.org/2000/svg" xmlns:xlink="http://www.w3.org/1999/xlink" width="43.327" height="43.327" viewBox="0 0 43.327 43.327">
  <defs>
    <linearGradient id="linear-gradient" x1="0.5" x2="0.5" y2="0.731" gradientUnits="objectBoundingBox">
      <stop offset="0" stop-color="#29a9eb"/>
      <stop offset="1" stop-color="#000d2d" stop-opacity="0"/>
    </linearGradient>
  </defs>
  <g id="Group_19982" data-name="Group 19982">
    <path id="Ellipse_8517" data-name="Ellipse 8517" d="M21.664,1.083a20.586,20.586,0,0,0-8.011,39.544A20.586,20.586,0,0,0,29.674,2.7a20.451,20.451,0,0,0-8.011-1.617m0-1.083A21.664,21.664,0,1,1,0,21.664,21.664,21.664,0,0,1,21.664,0Z" fill="url(#linear-gradient)"/>
    <g id="Group_19896" data-name="Group 19896" transform="translate(12.904 14.364)">
      <path id="Path_15" data-name="Path 15" d="M-215.995-47.733c-.105.471-.212.942-.313,1.413q-1.151,5.385-2.3,10.769c-.057.263-.105.528-.173.786-.226.854-.849,1.072-1.566.548l-3.675-2.691c-.358-.263-.358-.264-.674.038q-.894.854-1.787,1.708a.966.966,0,0,1-.716.293c.017-.252.032-.5.049-.746.078-1.1.153-2.191.24-3.286a.409.409,0,0,1,.127-.246q3.712-3.344,7.432-6.68a.287.287,0,0,0,.064-.059c.048-.085.09-.174.136-.262a.975.975,0,0,0-.32-.056.94.94,0,0,0-.331.15q-4.612,2.882-9.22,5.771a.465.465,0,0,1-.433.06c-1.274-.406-2.551-.8-3.824-1.2a1.748,1.748,0,0,1-.482-.237.373.373,0,0,1-.05-.627,1.962,1.962,0,0,1,.594-.389c1.2-.475,2.4-.931,3.608-1.391q6.178-2.366,12.357-4.727a1.391,1.391,0,0,1,.37-.1.726.726,0,0,1,.85.6c.008.033.023.065.035.1Z" transform="translate(233.956 48.895)" fill="#28a8e9"/>
    </g>
  </g>
</svg>
