<svg id="Group_21163" data-name="Group 21163" xmlns="http://www.w3.org/2000/svg" xmlns:xlink="http://www.w3.org/1999/xlink" width="45.362" height="45.243" viewBox="0 0 45.362 45.243">
  <defs>
    <linearGradient id="linear-gradient" x1="0.5" x2="0.5" y2="0.741" gradientUnits="objectBoundingBox">
      <stop offset="0" stop-color="#5165f6"/>
      <stop offset="1" stop-color="#000b2d" stop-opacity="0"/>
    </linearGradient>
  </defs>
  <g id="Group_19984" data-name="Group 19984" transform="translate(0 0)">
    <path id="Union_2" data-name="Union 2" d="M21.99,44.493A22.657,22.657,0,0,1,2.4,33.2,21.924,21.924,0,0,1,2.41,10.533a22.632,22.632,0,1,1,19.58,33.96Zm0-44.16A21.574,21.574,0,0,0,3.344,11.08l-.005.009a20.84,20.84,0,0,0-.007,21.553l.005.009A21.549,21.549,0,1,0,21.99.333Z" transform="translate(0.75 0.75)" fill="url(#linear-gradient)"/>
    <g id="Group_19897" data-name="Group 19897" transform="translate(10.893 12.765)">
      <path id="Path_16" data-name="Path 16" d="M-1034.514-394.855a4.755,4.755,0,0,1-.42.54,10.515,10.515,0,0,1-5.146,2.9,14.559,14.559,0,0,1-1.627.183.732.732,0,0,1-.676-.324c-.554-.712-1.118-1.416-1.669-2.129a.322.322,0,0,0-.331-.14,18.163,18.163,0,0,1-3.923,0,.376.376,0,0,0-.388.165c-.535.7-1.089,1.379-1.626,2.076a.859.859,0,0,1-.755.355,8.839,8.839,0,0,1-4.943-1.658c-.688-.473-1.3-1.057-1.943-1.6a.7.7,0,0,1-.246-.621,30.069,30.069,0,0,1,2.156-9.6c.247-.57.567-1.11.866-1.656a.859.859,0,0,1,.278-.3,13.438,13.438,0,0,1,4.509-1.955,8.718,8.718,0,0,1,.962-.122.684.684,0,0,1,.711.411c.334.642.674,1.281,1,1.927a.279.279,0,0,0,.3.177q1.063-.017,2.127,0a.279.279,0,0,0,.3-.181c.321-.632.658-1.255.979-1.887a.744.744,0,0,1,.782-.45,9.19,9.19,0,0,1,3.295.923c.7.333,1.374.727,2.049,1.111a1.093,1.093,0,0,1,.367.37,17.79,17.79,0,0,1,1.99,4.953,34.828,34.828,0,0,1,.981,5.826,1.781,1.781,0,0,0,.041.2Zm-14.6-11.212c-.185-.355-.37-.675-.521-1.01a.315.315,0,0,0-.425-.206,12.109,12.109,0,0,0-3.894,1.65.545.545,0,0,0-.192.221c-.371.794-.79,1.572-1.088,2.393a30.687,30.687,0,0,0-1.547,7.4.568.568,0,0,0,.245.59c.157.111.291.252.442.372a8.859,8.859,0,0,0,4.4,2,.593.593,0,0,0,.657-.269c.275-.4.591-.764.906-1.165-.368-.092-.7-.171-1.033-.261a12.2,12.2,0,0,1-3.461-1.5.7.7,0,0,1-.373-.713.7.7,0,0,1,1.073-.492c.539.3,1.072.613,1.635.855a14.108,14.108,0,0,0,4.576,1.038,17.563,17.563,0,0,0,4.719-.268,11.751,11.751,0,0,0,4.2-1.626.667.667,0,0,1,.835.064.691.691,0,0,1-.12,1.122,11.815,11.815,0,0,1-3.322,1.479c-.387.111-.78.2-1.2.31l.616.785c.591.75.591.749,1.526.548a9.3,9.3,0,0,0,4.418-2.433.388.388,0,0,0,.088-.282,33.444,33.444,0,0,0-.909-5.465,17.1,17.1,0,0,0-1.73-4.49.663.663,0,0,0-.235-.241c-.538-.3-1.075-.6-1.628-.873a8.92,8.92,0,0,0-2.275-.752c-.085-.016-.234-.007-.263.043-.218.378-.413.769-.624,1.172.13.025.228.045.325.061a14.879,14.879,0,0,1,3.821,1.13.7.7,0,0,1,.424.941.7.7,0,0,1-.992.328,16.218,16.218,0,0,0-8.9-1.072,13.472,13.472,0,0,0-3.807,1.09.686.686,0,0,1-.935-.335.685.685,0,0,1,.369-.924c.337-.152.679-.292,1.024-.421A16.009,16.009,0,0,1-1049.11-406.067Z" transform="translate(1058.209 408.75)" fill="#5165f6"/>
      <path id="Path_17" data-name="Path 17" d="M-1023.3-391.09a2.835,2.835,0,0,1-.83,2.066,2.317,2.317,0,0,1-3.413-.1,2.937,2.937,0,0,1-.128-3.708,2.354,2.354,0,0,1,4.07.5,8.432,8.432,0,0,1,.365,1.227Zm-3.585.031a1.529,1.529,0,0,0,.366,1,.945.945,0,0,0,1.444.028,1.558,1.558,0,0,0-.014-2.065.942.942,0,0,0-1.413.024A1.523,1.523,0,0,0-1026.881-391.059Z" transform="translate(1040.908 400.108)" fill="#5165f6"/>
      <path id="Path_18" data-name="Path 18" d="M-1043.891-391.064a2.784,2.784,0,0,1,.917-2.121,2.3,2.3,0,0,1,3.327.191,2.936,2.936,0,0,1-.042,3.9,2.351,2.351,0,0,1-3.9-.7,8.433,8.433,0,0,1-.364-1.251Zm3.584.015a1.549,1.549,0,0,0-.359-1.01.945.945,0,0,0-1.412-.074,1.545,1.545,0,0,0,.035,2.162.931.931,0,0,0,1.262.005A1.47,1.47,0,0,0-1040.307-391.048Z" transform="translate(1049.975 400.116)" fill="#5165f6"/>
    </g>
  </g>
</svg>
