<svg id="Group_21160" data-name="Group 21160" xmlns="http://www.w3.org/2000/svg" xmlns:xlink="http://www.w3.org/1999/xlink" width="44.05" height="43.327" viewBox="0 0 44.05 43.327">
  <defs>
    <linearGradient id="linear-gradient" x1="0.5" x2="0.5" y2="0.664" gradientUnits="objectBoundingBox">
      <stop offset="0" stop-color="#12a3d4"/>
      <stop offset="1" stop-color="#001532" stop-opacity="0"/>
    </linearGradient>
  </defs>
  <g id="Group_19980" data-name="Group 19980">
    <path id="Ellipse_8510" data-name="Ellipse 8510" d="M22.025,1.083A21.125,21.125,0,0,0,13.868,2.7,20.9,20.9,0,0,0,7.21,7.117a20.5,20.5,0,0,0-4.485,6.542,20.324,20.324,0,0,0,0,16.009A20.5,20.5,0,0,0,7.21,36.21a20.9,20.9,0,0,0,6.657,4.415,21.354,21.354,0,0,0,16.314,0,20.9,20.9,0,0,0,6.657-4.415,20.5,20.5,0,0,0,4.485-6.542,20.324,20.324,0,0,0,0-16.009,20.5,20.5,0,0,0-4.485-6.542A20.9,20.9,0,0,0,30.182,2.7a21.125,21.125,0,0,0-8.157-1.619m0-1.083A21.846,21.846,0,0,1,44.049,21.664,21.846,21.846,0,0,1,22.025,43.327,21.846,21.846,0,0,1,0,21.664,21.846,21.846,0,0,1,22.025,0Z" fill="url(#linear-gradient)"/>
    <path id="Path_8" data-name="Path 8" d="M138.822,57.654a4.085,4.085,0,0,1-3.79-2.828,4.048,4.048,0,0,0,1.746-.052.39.39,0,0,0,.059-.027,4.07,4.07,0,0,1-2.646-1.869,3.962,3.962,0,0,1-.6-2.166,4.011,4.011,0,0,0,1.813.493,4.087,4.087,0,0,1-1.676-2.471,4.032,4.032,0,0,1,.437-2.951,11.655,11.655,0,0,0,8.4,4.257c-.024-.161-.049-.3-.065-.446a3.954,3.954,0,0,1,.6-2.664,3.914,3.914,0,0,1,2.763-1.841,3.97,3.97,0,0,1,3.567,1.135.206.206,0,0,0,.217.065,8.231,8.231,0,0,0,2.37-.911.42.42,0,0,1,.054-.028s.01,0,.027,0a4.168,4.168,0,0,1-1.744,2.217,7.816,7.816,0,0,0,2.268-.611l.016.018c-.156.2-.306.413-.468.611a7.969,7.969,0,0,1-1.482,1.407.139.139,0,0,0-.067.129,11.283,11.283,0,0,1-.076,1.809,12,12,0,0,1-1.05,3.627,11.728,11.728,0,0,1-2.2,3.211,10.889,10.889,0,0,1-5.6,3.12,12.217,12.217,0,0,1-2.269.27,11.5,11.5,0,0,1-6.52-1.75c-.025-.015-.051-.033-.1-.062a8.237,8.237,0,0,0,4.076-.562A8.069,8.069,0,0,0,138.822,57.654Z" transform="translate(-120.872 -31.546)" fill="#1ba5d4" fill-rule="evenodd"/>
  </g>
</svg>
