<svg id="Group_21161" data-name="Group 21161" xmlns="http://www.w3.org/2000/svg" xmlns:xlink="http://www.w3.org/1999/xlink" width="43.799" height="43.799" viewBox="0 0 43.799 43.799">
  <defs>
    <radialGradient id="radial-gradient" cx="0.485" cy="0.028" r="0.808" gradientUnits="objectBoundingBox">
      <stop offset="0" stop-color="#fd9e50"/>
      <stop offset="0.152" stop-color="#fd9e50"/>
      <stop offset="0.251" stop-color="#f9894f"/>
      <stop offset="0.452" stop-color="#f2544c"/>
      <stop offset="0.601" stop-color="#ec294b"/>
      <stop offset="0.834" stop-color="#8436a0"/>
      <stop offset="1" stop-color="#3841df" stop-opacity="0"/>
    </radialGradient>
    <radialGradient id="radial-gradient-2" cx="0.36" cy="0.307" r="0.728" gradientUnits="objectBoundingBox">
      <stop offset="0.152" stop-color="#fd9e50"/>
      <stop offset="0.251" stop-color="#f9894f"/>
      <stop offset="0.452" stop-color="#f2544c"/>
      <stop offset="0.601" stop-color="#ec294b"/>
      <stop offset="0.834" stop-color="#8436a0"/>
      <stop offset="1" stop-color="#3841df"/>
    </radialGradient>
  </defs>
  <g id="Group_19981" data-name="Group 19981" transform="translate(0 0)">
    <ellipse id="Ellipse_8511" data-name="Ellipse 8511" cx="21.664" cy="21.664" rx="21.664" ry="21.664" transform="translate(0.142 0.236)" fill="none"/>
    <path id="Ellipse_8511_-_Outline" data-name="Ellipse 8511 - Outline" d="M21.9.73a21.175,21.175,0,0,0-8.24,40.676A21.175,21.175,0,0,0,30.139,2.393,21.036,21.036,0,0,0,21.9.73m0-.73A21.9,21.9,0,1,1,0,21.9,21.9,21.9,0,0,1,21.9,0Z" transform="translate(0 0)" fill="url(#radial-gradient)"/>
    <path id="Path_12" data-name="Path 12" d="M239.667,48.078a5.506,5.506,0,0,0-1.679-3.543,5.752,5.752,0,0,0-3.806-1.545,74.728,74.728,0,0,0-10.266.115,5.237,5.237,0,0,0-4.49,4.031c-.495,1.766-.4,9.905-.108,11.651a5.254,5.254,0,0,0,4.17,4.527c1.637.423,9.684.368,11.489.076a5.263,5.263,0,0,0,4.546-4.151C240,57.426,239.833,49.713,239.667,48.078Zm-1.911,10.371a3.514,3.514,0,0,1-3.3,3.135c-1.674.183-9.151.284-10.7-.15a3.4,3.4,0,0,1-2.581-2.932,69.468,69.468,0,0,1,0-10.474,3.509,3.509,0,0,1,3.29-3.121,73.152,73.152,0,0,1,10.217.041,3.514,3.514,0,0,1,3.129,3.309A74.387,74.387,0,0,1,237.756,58.449Zm-8.3-10.523a5.322,5.322,0,1,0,5.319,5.325A5.322,5.322,0,0,0,229.459,47.926Zm-.036,8.76a3.442,3.442,0,1,1,3.472-3.411A3.442,3.442,0,0,1,229.423,56.686Zm6.812-8.961a1.246,1.246,0,1,1-1.243-1.249A1.246,1.246,0,0,1,236.234,47.725Z" transform="translate(-207.558 -31.463)" stroke="#000f2e" stroke-width="0.7" fill="url(#radial-gradient-2)"/>
  </g>
</svg>
