<svg xmlns="http://www.w3.org/2000/svg" width="36" height="36" viewBox="0 0 36 36">
  <g id="wallet_black_24dp" transform="translate(0.038 0.038)">
    <g id="Group_21135" data-name="Group 21135">
      <rect id="Rectangle_8265" data-name="Rectangle 8265" width="36" height="36" transform="translate(-0.038 -0.038)" fill="none"/>
    </g>
    <g id="Group_21136" data-name="Group 21136" transform="translate(2.994 5.987)">
      <path id="Path_54495" data-name="Path 54495" d="M25.949,4H7.987A5.986,5.986,0,0,0,2,9.987V21.962a5.986,5.986,0,0,0,5.987,5.987H25.949a5.986,5.986,0,0,0,5.987-5.987V9.987A5.986,5.986,0,0,0,25.949,4ZM23.165,18.624a1.489,1.489,0,0,1-1.317.3L5.218,14.852a3,3,0,0,1,2.769-1.871H25.949a3.046,3.046,0,0,1,2.44,1.257ZM7.987,6.994H25.949a3,3,0,0,1,2.994,2.994v.823a5.983,5.983,0,0,0-2.994-.823H7.987a5.983,5.983,0,0,0-2.994.823V9.987A3,3,0,0,1,7.987,6.994Z" transform="translate(-2 -4)" fill="#fff"/>
    </g>
  </g>
</svg>
