<svg xmlns="http://www.w3.org/2000/svg" width="30" height="30" viewBox="0 0 30 30">
  <path id="icon_snapchat" d="M15,.563a15,15,0,1,0,15,15A15,15,0,0,0,15,.563Zm10.252,20.5c-.212.49-1.095.847-2.71,1.1a7.433,7.433,0,0,0-.26.962.466.466,0,0,1-.49.357H21.78c-.375,0-.774-.175-1.56-.175a3.179,3.179,0,0,0-2.262.829,4.513,4.513,0,0,1-2.976,1.1,4.614,4.614,0,0,1-2.933-1.1A3.189,3.189,0,0,0,9.786,23.3a15.418,15.418,0,0,0-1.56.187.48.48,0,0,1-.5-.363,7.593,7.593,0,0,0-.26-.968c-.835-.127-2.71-.454-2.752-1.294a.428.428,0,0,1,.357-.448c2.8-.46,4.058-3.333,4.113-3.454,0-.006.006-.012.012-.018a.9.9,0,0,0,.1-.756c-.206-.478-1.083-.647-1.452-.8-.956-.375-1.089-.81-1.028-1.107a1.035,1.035,0,0,1,1.325-.623,2.279,2.279,0,0,0,.95.254.848.848,0,0,0,.4-.085c-.085-1.446-.284-3.508.23-4.663A5.493,5.493,0,0,1,14.8,5.885l.405-.006a5.444,5.444,0,0,1,5.1,3.284c.514,1.155.315,3.212.23,4.663a.76.76,0,0,0,.345.085,2.386,2.386,0,0,0,.889-.254,1.105,1.105,0,0,1,.823,0,.842.842,0,0,1,.629.72c.006.393-.345.732-1.04,1-.085.036-.187.067-.3.1-.393.127-.992.315-1.149.7a.928.928,0,0,0,.1.756c.006.006.006.012.012.018.054.121,1.313,2.994,4.113,3.454a.464.464,0,0,1,.3.653Z" transform="translate(0 -0.563)" fill="#404040"/>
</svg>
