<svg xmlns="http://www.w3.org/2000/svg" width="30" height="30" viewBox="0 0 30 30">
  <path id="icon_webLink" d="M-132-170a14.9,14.9,0,0,1-10.606-4.393A14.9,14.9,0,0,1-147-185a14.9,14.9,0,0,1,4.393-10.606A14.9,14.9,0,0,1-132-200a14.9,14.9,0,0,1,10.607,4.393A14.9,14.9,0,0,1-117-185a14.9,14.9,0,0,1-4.393,10.607A14.9,14.9,0,0,1-132-170Zm-5.873-20.316a1.289,1.289,0,0,0-1.287,1.288v9.44a1.288,1.288,0,0,0,1.287,1.287h9.44a1.289,1.289,0,0,0,1.288-1.287v-4.727a.64.64,0,0,0-.648-.645.634.634,0,0,0-.451.19l-.429.428a.639.639,0,0,0-.188.455v3.868h-8.582V-188.6h7.08a.647.647,0,0,0,.454-.188l.429-.429a.633.633,0,0,0,.14-.7.633.633,0,0,0-.594-.4Zm10.085-1.716a.633.633,0,0,0-.594.4.633.633,0,0,0,.139.7l.957.958-6.53,6.531a.638.638,0,0,0-.189.455.638.638,0,0,0,.189.455l.607.607a.641.641,0,0,0,.454.188.64.64,0,0,0,.455-.188l6.531-6.531.958.958a.635.635,0,0,0,.45.189.64.64,0,0,0,.649-.644v-3.433a.644.644,0,0,0-.644-.644Z" transform="translate(147 200)" fill="#404040"/>
</svg>
