<svg xmlns="http://www.w3.org/2000/svg" width="30" height="30" viewBox="0 0 30 30">
  <path id="icon_youtube" d="M-132-170a14.9,14.9,0,0,1-10.606-4.393A14.9,14.9,0,0,1-147-185a14.9,14.9,0,0,1,4.393-10.606A14.9,14.9,0,0,1-132-200a14.9,14.9,0,0,1,10.607,4.393A14.9,14.9,0,0,1-117-185a14.9,14.9,0,0,1-4.393,10.607A14.9,14.9,0,0,1-132-170Zm0-21.124a66.845,66.845,0,0,0-6.825.255,2.149,2.149,0,0,0-1.261.59,2.392,2.392,0,0,0-.7,1.251,11.229,11.229,0,0,0-.229,1.5c-.051.557-.08,1.024-.086,1.389s-.011.877-.011,1.526,0,1.162.011,1.525.035.832.086,1.389a12.478,12.478,0,0,0,.219,1.5,2.373,2.373,0,0,0,.706,1.251,2.178,2.178,0,0,0,1.266.59A66.842,66.842,0,0,0-132-178.1a66.854,66.854,0,0,0,6.826-.255,2.154,2.154,0,0,0,1.261-.59,2.4,2.4,0,0,0,.7-1.251,11.4,11.4,0,0,0,.229-1.5c.051-.557.08-1.024.086-1.389.007-.344.01-.828.01-1.525s0-1.182-.01-1.526c-.006-.364-.035-.832-.086-1.389a12.463,12.463,0,0,0-.219-1.5,2.373,2.373,0,0,0-.706-1.251,2.174,2.174,0,0,0-1.266-.59A66.857,66.857,0,0,0-132-191.124Zm-1.952,10.416a.715.715,0,0,1-.316-.082.608.608,0,0,1-.336-.57v-6.51a.607.607,0,0,1,.336-.569.687.687,0,0,1,.32-.087.627.627,0,0,1,.341.107l5.207,3.255a.587.587,0,0,1,.305.549.587.587,0,0,1-.305.549l-5.207,3.255A.586.586,0,0,1-133.952-180.708Z" transform="translate(147 200)" fill="#404040"/>
</svg>
