<svg xmlns="http://www.w3.org/2000/svg" width="30" height="30" viewBox="0 0 30 30">
  <path id="icon_tiktok" d="M-132-170a14.9,14.9,0,0,1-10.606-4.393A14.9,14.9,0,0,1-147-185a14.9,14.9,0,0,1,4.393-10.606A14.9,14.9,0,0,1-132-200a14.9,14.9,0,0,1,10.607,4.393A14.9,14.9,0,0,1-117-185a14.9,14.9,0,0,1-4.393,10.607A14.9,14.9,0,0,1-132-170Zm-2.012-17.075a5.168,5.168,0,0,0-3.339,1.255,5.109,5.109,0,0,0-1.762,3.388c-.016.364,0,.735.006,1.018a5.147,5.147,0,0,0,2.493,3.9,5,5,0,0,0,2.536.711c.079,0,.161,0,.251-.007A5.075,5.075,0,0,0-129.79-179a5.246,5.246,0,0,0,.922-2.691c.013-1.258.012-2.54.012-3.78v-.009c0-.717,0-1.458,0-2.187a8.657,8.657,0,0,0,1.107.635,7.26,7.26,0,0,0,2.868.662v-2.752a4.891,4.891,0,0,1-2.9-1.223,4.219,4.219,0,0,1-1.2-2.849c-.355,0-.717,0-1.067,0-.526,0-1.068,0-1.6.01-.013,1.7-.012,3.429-.012,5.1,0,.977,0,2.084,0,3.144,0,.329,0,.659,0,.978,0,.878,0,1.786-.047,2.682a1.483,1.483,0,0,1-.257.684l-.023.041a2.306,2.306,0,0,1-1.893,1.1c-.057.005-.115.008-.172.008a2.34,2.34,0,0,1-2.219-1.968c0-.058,0-.117,0-.176a2.215,2.215,0,0,1,.1-.924,2.363,2.363,0,0,1,.93-1.2,2.223,2.223,0,0,1,1.273-.377,2.566,2.566,0,0,1,.79.124c0-.434.008-.874.015-1.3.01-.568.02-1.155.012-1.734A4.659,4.659,0,0,0-134.012-187.075Z" transform="translate(147 200)" fill="#404040"/>
</svg>
