<svg xmlns="http://www.w3.org/2000/svg" width="30" height="30" viewBox="0 0 30 30">
  <path id="icon_twitch" d="M-132-170a14.9,14.9,0,0,1-10.606-4.393A14.9,14.9,0,0,1-147-185a14.9,14.9,0,0,1,4.393-10.606A14.9,14.9,0,0,1-132-200a14.9,14.9,0,0,1,10.607,4.393A14.9,14.9,0,0,1-117-185a14.9,14.9,0,0,1-4.393,10.607A14.9,14.9,0,0,1-132-170Zm-5.942-22L-139-189.3v11.049h3.761v2h2.117l2-2h3.058l4.113-4.113V-192h-13.989Zm4.468,13.281v-2h-3.174v-9.876h11.285v7.523l-2.352,2.353h-3.762l-2,1.994Zm4.349-9.168h0v4.109h1.41v-4.109Zm-3.761,0h0v4.109h1.409v-4.109h-1.409Z" transform="translate(147 200)" fill="#404040"/>
</svg>
