<svg xmlns="http://www.w3.org/2000/svg" width="30.741" height="30.747" viewBox="0 0 30.741 30.747">
  <g id="soc_instagram" transform="translate(-1509.242 -410.294)">
    <path id="Path_811" data-name="Path 811" d="M74-376.537v-1.921c.044-.366.08-.732.134-1.1a15.073,15.073,0,0,1,5.749-10.017,14.938,14.938,0,0,1,11.984-3.086,14.7,14.7,0,0,1,8.78,4.732,15,15,0,0,1,3.953,12.5,14.747,14.747,0,0,1-3.642,8.02,15.113,15.113,0,0,1-8.9,5.04c-.569.1-1.145.16-1.718.241H88.414a1.754,1.754,0,0,0-.23-.05,14.938,14.938,0,0,1-8.232-3.19,15.1,15.1,0,0,1-5.718-9.511C74.136-375.428,74.08-375.984,74-376.537ZM89.4-387.4v-.062c-.4,0-.8-.014-1.2,0-1.368.054-2.749.017-4.1.2a4.99,4.99,0,0,0-4.251,3.463,8.2,8.2,0,0,0-.4,2.807c.014,2.76-.035,5.524.1,8.278a5.21,5.21,0,0,0,5.037,5.053c1.212.095,2.424.124,3.633.124,1.99-.009,3.983,0,5.968-.124a5.164,5.164,0,0,0,4.977-4.643,24.9,24.9,0,0,0,.174-3.381c0-2.21-.014-4.422-.123-6.628a5.115,5.115,0,0,0-1.925-3.826,5.954,5.954,0,0,0-3.741-1.251C92.161-387.427,90.78-387.4,89.4-387.4Z" transform="translate(1435.242 803.164)" fill="#404040"/>
    <path id="Path_812" data-name="Path 812" d="M163.627-294.792c0-1.37-.017-2.74.01-4.109a5.57,5.57,0,0,1,.2-1.359,3.379,3.379,0,0,1,3.133-2.548c.994-.088,2-.12,3-.122q2.941,0,5.881.062a5.785,5.785,0,0,1,1.363.2,3.414,3.414,0,0,1,2.566,3.122,14.907,14.907,0,0,1,.1,1.615c0,2.45,0,4.9-.051,7.35a3.818,3.818,0,0,1-1.283,3.024,3.906,3.906,0,0,1-2.561.875c-2.84.03-5.681.035-8.52,0a3.728,3.728,0,0,1-2.94-1.263,4.151,4.151,0,0,1-.893-2.647c-.054-1.4-.067-2.8-.1-4.2Zm8.114,5.133a5.1,5.1,0,0,0,3.614-1.5,5.1,5.1,0,0,0,1.49-3.616,5.1,5.1,0,0,0-1.491-3.616,5.1,5.1,0,0,0-3.615-1.494,5.093,5.093,0,0,0-3.628,1.5,5.093,5.093,0,0,0-1.488,3.63,5.1,5.1,0,0,0,1.5,3.61,5.1,5.1,0,0,0,3.618,1.485Zm5.3-9.242a1.183,1.183,0,0,0,.85-.34,1.183,1.183,0,0,0,.353-.845,1.2,1.2,0,0,0-.349-.848,1.2,1.2,0,0,0-.847-.351,1.185,1.185,0,0,0-1.185,1.176,1.174,1.174,0,0,0,.333.854,1.174,1.174,0,0,0,.845.354Z" transform="translate(1352.884 720.437)" fill="#404040"/>
    <path id="Path_813" data-name="Path 813" d="M224.379-239.213a3.3,3.3,0,0,1,.972-2.345,3.3,3.3,0,0,1,2.35-.962,3.3,3.3,0,0,1,2.346.972,3.3,3.3,0,0,1,.962,2.349,3.3,3.3,0,0,1-.972,2.345,3.3,3.3,0,0,1-2.349.962,3.3,3.3,0,0,1-2.345-.972A3.3,3.3,0,0,1,224.379-239.213Z" transform="translate(1296.923 664.873)" fill="#404040"/>
  </g>
</svg>
