<svg xmlns="http://www.w3.org/2000/svg" width="30.738" height="30.741" viewBox="0 0 30.738 30.741">
  <g id="soc_telegram" transform="translate(-1523 -499)">
    <path id="Path_809" data-name="Path 809" d="M259.572,740.811h-1.925a1.09,1.09,0,0,0-.2-.05,13.659,13.659,0,0,1-3.8-.783,15.14,15.14,0,0,1-10.166-11.857c-.116-.565-.164-1.144-.241-1.716V724.48c.018-.087.04-.174.053-.262.1-.69.16-1.391.313-2.072a15.366,15.366,0,1,1,17.65,18.426C260.7,740.67,260.135,740.733,259.572,740.811Zm-.388-11.133,1.921,1.3c.853.578,1.7,1.162,2.558,1.734a.96.96,0,0,0,1.566-.614q.072-.307.141-.614,1.405-6.212,2.807-12.424a.829.829,0,0,0-.762-1.083,1.6,1.6,0,0,0-.638.117q-8.615,3.1-17.226,6.2c-.387.14-.555.334-.542.624s.2.474.59.581c1.33.362,2.658.732,3.991,1.083a.58.58,0,0,1,.461.43c.489,1.48,1,2.952,1.5,4.426a.764.764,0,0,0,.926.6,1.219,1.219,0,0,0,.506-.294C257.718,731.072,258.441,730.381,259.184,729.678Z" transform="translate(1279.76 -211.07)" fill="#404040"/>
    <path id="Path_810" data-name="Path 810" d="M387.392,852.142c-.038-.085-.08-.168-.111-.256q-.585-1.745-1.166-3.492c-.136-.409-.1-.512.28-.727l9.281-5.319c.061-.035.121-.1.182-.1a1.639,1.639,0,0,1,.321.057c-.033.094-.037.22-.1.275-.541.459-1.094.9-1.643,1.354-2.113,1.727-4.229,3.449-6.336,5.187a.9.9,0,0,0-.284.522c-.111.73-.18,1.467-.269,2.2-.011.095-.039.187-.059.281Z" transform="translate(1148.224 -332.901)" fill="#404040"/>
  </g>
</svg>
