<svg xmlns="http://www.w3.org/2000/svg" width="30.74" height="30.796" viewBox="0 0 30.74 30.796">
  <g id="soc_linkedin" transform="translate(-1436.982 -483.351)">
    <path id="Path_814" data-name="Path 814" d="M-426.069,108h1.921a1.678,1.678,0,0,0,.232.049,14.623,14.623,0,0,1,6.5,2.02,15.2,15.2,0,0,1,7.447,10.675c.105.561.16,1.128.236,1.691v1.925a1.822,1.822,0,0,0-.05.233,14.846,14.846,0,0,1-2.491,7.272,15.14,15.14,0,0,1-10.154,6.691c-.567.107-1.144.16-1.716.241h-1.921c-.1-.018-.193-.04-.29-.055-.642-.093-1.294-.145-1.925-.282a15.037,15.037,0,0,1-9.083-5.792,15.037,15.037,0,0,1-2.967-11.351,14.842,14.842,0,0,1,3.663-8.052,15.051,15.051,0,0,1,8.942-5.032C-427.178,108.136-426.622,108.08-426.069,108Zm1.14,23.282h6.632a1.188,1.188,0,0,0,1.336-1.328V116.694a1.186,1.186,0,0,0-1.312-1.327h-13.265a1.176,1.176,0,0,0-1.315,1.318v13.261a1.181,1.181,0,0,0,1.321,1.337Q-428.229,131.284-424.929,131.282Z" transform="translate(1877.46 375.351)" fill="#404040"/>
    <path id="Path_815" data-name="Path 815" d="M-260.67,279.623h-2.358v-.334c0-1.283,0-2.566-.012-3.85a2.823,2.823,0,0,0-.055-.506,1.068,1.068,0,0,0-1.047-1.006,1.185,1.185,0,0,0-1.359.836,4.812,4.812,0,0,0-.16,1.213c-.02,1.1-.007,2.2-.007,3.306v.337H-268v-7.558h2.246V273c.042,0,.069,0,.075,0a2.67,2.67,0,0,1,2.845-1.1,2.3,2.3,0,0,1,2.072,2.221,12.622,12.622,0,0,1,.1,1.524c.013,1.212,0,2.424,0,3.637Z" transform="translate(1718.815 224.645)" fill="#404040"/>
    <path id="Path_816" data-name="Path 816" d="M-313.524,274.55v7.558h-2.326V274.55Z" transform="translate(1762.827 222.158)" fill="#404040"/>
    <path id="Path_817" data-name="Path 817" d="M-317.035,229.956a1.363,1.363,0,0,1-1.355-1.363,1.37,1.37,0,0,1,.407-.968,1.37,1.37,0,0,1,.974-.395,1.368,1.368,0,0,1,1.355,1.363,1.368,1.368,0,0,1-.407.969A1.368,1.368,0,0,1-317.035,229.956Z" transform="translate(1765.163 265.683)" fill="#404040"/>
  </g>
</svg>
