<svg id="soc_discord" xmlns="http://www.w3.org/2000/svg" width="30.734" height="30.73" viewBox="0 0 30.734 30.73">
  <path id="Path_796" data-name="Path 796" d="M-414.414,577.6h1.925c.514.067,1.031.115,1.541.2a14.974,14.974,0,0,1,8.775,4.743,14.969,14.969,0,0,1,3.942,12.5,14.686,14.686,0,0,1-4.793,9.194,14.99,14.99,0,0,1-12.5,3.949,14.723,14.723,0,0,1-8.082-3.7,15.1,15.1,0,0,1-4.972-8.844c-.1-.569-.16-1.145-.241-1.719V592c.044-.366.08-.731.133-1.1a15.1,15.1,0,0,1,3.815-8.218,15.049,15.049,0,0,1,8.8-4.858C-415.521,577.737-414.966,577.676-414.414,577.6Zm5.126,21.932c.363.581.722,1.142,1.067,1.713.105.173.214.184.392.126a18.323,18.323,0,0,0,5.19-2.635.568.568,0,0,0,.208-.361,18.518,18.518,0,0,0-.055-4.043,18.755,18.755,0,0,0-3.144-8.239.773.773,0,0,0-.308-.262,17.387,17.387,0,0,0-4.2-1.293.334.334,0,0,0-.274.129c-.155.267-.282.55-.411.832-.059.132-.116.2-.288.173a17.411,17.411,0,0,0-4.7-.012.332.332,0,0,1-.258-.147c-.156-.267-.287-.549-.42-.828a.237.237,0,0,0-.3-.16,18.367,18.367,0,0,0-4.222,1.318.665.665,0,0,0-.265.225,18.694,18.694,0,0,0-3.208,12.314.488.488,0,0,0,.167.321,18,18,0,0,0,5.3,2.676c.069.021.2.009.229-.035.393-.6.773-1.2,1.16-1.808l-1.918-.934c.265-.216.392-.424.73-.278a13,13,0,0,0,10.653.039c.375-.16.429-.144.748.265Z" transform="translate(428.82 -577.6)" fill="#404040"/>
  <path id="Path_797" data-name="Path 797" d="M-214,751.926a2.105,2.105,0,0,1,1.97,2.466,2.955,2.955,0,0,1-.465,1.21,1.833,1.833,0,0,1-2.983.054,2.4,2.4,0,0,1,.411-3.391A1.739,1.739,0,0,1-214,751.926Z" transform="translate(233.063 -737.945)" fill="#404040"/>
  <path id="Path_798" data-name="Path 798" d="M-304.007,753.951a2.435,2.435,0,0,1-.626,1.684,1.845,1.845,0,0,1-2.821-.08,2.446,2.446,0,0,1-.188-2.83,1.915,1.915,0,0,1,1.941-.921,2.092,2.092,0,0,1,1.626,1.653C-304.036,753.646-304.022,753.836-304.007,753.951Z" transform="translate(317.694 -737.808)" fill="#404040"/>
</svg>
