<svg xmlns="http://www.w3.org/2000/svg" width="30.74" height="30.749" viewBox="0 0 30.74 30.749">
  <path id="soc_facebook" d="M617.332-600.2v1.862c-.017.1-.038.192-.051.289-.08.6-.137,1.213-.252,1.81a15.35,15.35,0,0,1-12.42,12.136c-.561.095-1.123.16-1.684.236H601a1.5,1.5,0,0,0-.228-.051,14.838,14.838,0,0,1-4-.855,15.372,15.372,0,0,1-9.6-18.629,15.342,15.342,0,0,1,22.495-9.123,14.952,14.952,0,0,1,7.437,10.666C617.2-601.314,617.256-600.756,617.332-600.2Zm-17.644,2.271v7.762c0,.431.1.534.524.535h2.431c.491,0,.58-.087.58-.571q0-3.676.008-7.353v-.373h2.708a.51.51,0,0,0,.584-.475c.1-.844.2-1.684.3-2.532.052-.481-.144-.691-.626-.692h-2.961c0-.9-.026-1.747.007-2.594a1.255,1.255,0,0,1,1.335-1.321c.528-.03,1.059-.013,1.589-.027a.5.5,0,0,0,.557-.561q.01-1.08,0-2.161a.494.494,0,0,0-.561-.553c-.77,0-1.541-.014-2.311,0a4.016,4.016,0,0,0-4.1,3.874c-.073,1-.042,2-.058,3v.338H597.7c-.425,0-.6.181-.6.6,0,.8,0,1.6,0,2.4,0,.536.16.694.7.695Z" transform="translate(-586.592 614.619)" fill="#404040"/>
</svg>
