<svg xmlns="http://www.w3.org/2000/svg" width="30.72" height="30.771" viewBox="0 0 30.72 30.771">
  <path id="soc_twitter" d="M179.8,138h-1.925a2.24,2.24,0,0,0-.261-.052,14.593,14.593,0,0,1-7.988-3.03,14.948,14.948,0,0,1-6.032-14.1,14.666,14.666,0,0,1,6.11-10.535,15.364,15.364,0,0,1,24.272,9.726c.1.549.155,1.106.231,1.659V123.6a1.822,1.822,0,0,0-.05.233,14.71,14.71,0,0,1-2.11,6.649,15.175,15.175,0,0,1-10.532,7.291C180.947,137.872,180.369,137.925,179.8,138Zm-4.892-10.788a8.473,8.473,0,0,1-5.89,1.736,1.487,1.487,0,0,0,.3.222,11.694,11.694,0,0,0,7.453,1.455,10.661,10.661,0,0,0,5.5-2.272,11.752,11.752,0,0,0,4.5-9.524.494.494,0,0,1,.193-.428c.4-.336.779-.689,1.141-1.06.237-.241.43-.529.661-.817l-2.126.574c1.115-1.16,1.518-1.711,1.537-2.2-.352.16-.7.34-1.06.481s-.743.232-1.109.363a.509.509,0,0,1-.581-.148,4.09,4.09,0,0,0-6.784,3.71,1.807,1.807,0,0,1,0,.249,11.74,11.74,0,0,1-8.417-4.295A4.216,4.216,0,0,0,171.4,120.7l-.04.086-1.72-.488a4.163,4.163,0,0,0,3.193,3.99l-.01.08h-1.693a4.092,4.092,0,0,0,3.769,2.847Z" transform="translate(-163.486 -107.232)" fill="#404040"/>
</svg>
